0
SECTION
2
HEADER
9
$ACADVER
1
AC1006
0
ENDSEC
0
SECTION
2
TABLES
0
TABLE
2
LAYER
70
1
0
LAYER
70
0
62
1
6
CONTINUOUS
2
L0D0_0
0
ENDTAB
0
ENDSEC
0
SECTION
2
BLOCKS
0
ENDSEC
0
SECTION
2
ENTITIES
0
POLYLINE
8
L0D0_0
70
1
40
0
41
0
66
1
0
VERTEX
8
L0D0_0
10
-18.104
20
-37.5
0
VERTEX
8
L0D0_0
10
-19.311
20
-37.427
0
VERTEX
8
L0D0_0
10
-20.511
20
-37.281
0
VERTEX
8
L0D0_0
10
-21.7
20
-37.063
0
VERTEX
8
L0D0_0
10
-22.873
20
-36.774
0
VERTEX
8
L0D0_0
10
-24.027
20
-36.415
0
VERTEX
8
L0D0_0
10
-25.157
20
-35.986
0
VERTEX
8
L0D0_0
10
-26.259
20
-35.49
0
VERTEX
8
L0D0_0
10
-27.33
20
-34.928
0
VERTEX
8
L0D0_0
10
-28.364
20
-34.303
0
VERTEX
8
L0D0_0
10
-29.359
20
-33.616
0
VERTEX
8
L0D0_0
10
-30.31
20
-32.871
0
VERTEX
8
L0D0_0
10
-31.215
20
-32.069
0
VERTEX
8
L0D0_0
10
-32.069
20
-31.215
0
VERTEX
8
L0D0_0
10
-32.871
20
-30.31
0
VERTEX
8
L0D0_0
10
-33.616
20
-29.359
0
VERTEX
8
L0D0_0
10
-34.303
20
-28.364
0
VERTEX
8
L0D0_0
10
-34.928
20
-27.33
0
VERTEX
8
L0D0_0
10
-35.49
20
-26.259
0
VERTEX
8
L0D0_0
10
-35.986
20
-25.157
0
VERTEX
8
L0D0_0
10
-36.415
20
-24.027
0
VERTEX
8
L0D0_0
10
-36.774
20
-22.873
0
VERTEX
8
L0D0_0
10
-37.063
20
-21.7
0
VERTEX
8
L0D0_0
10
-37.281
20
-20.511
0
VERTEX
8
L0D0_0
10
-37.427
20
-19.311
0
VERTEX
8
L0D0_0
10
-37.5
20
-18.104
0
VERTEX
8
L0D0_0
10
-37.5
20
22.953
0
VERTEX
8
L0D0_0
10
-37.445
20
23.858
0
VERTEX
8
L0D0_0
10
-37.336
20
24.758
0
VERTEX
8
L0D0_0
10
-37.216
20
25.412
0
VERTEX
8
L0D0_0
10
0.009
20
25.412
0
VERTEX
8
L0D0_0
10
-1.566
20
25.364
0
VERTEX
8
L0D0_0
10
-3.136
20
25.218
0
VERTEX
8
L0D0_0
10
-4.693
20
24.975
0
VERTEX
8
L0D0_0
10
-6.232
20
24.636
0
VERTEX
8
L0D0_0
10
-7.747
20
24.203
0
VERTEX
8
L0D0_0
10
-9.232
20
23.676
0
VERTEX
8
L0D0_0
10
-10.682
20
23.058
0
VERTEX
8
L0D0_0
10
-12.091
20
22.352
0
VERTEX
8
L0D0_0
10
-13.453
20
21.559
0
VERTEX
8
L0D0_0
10
-14.764
20
20.684
0
VERTEX
8
L0D0_0
10
-16.017
20
19.729
0
VERTEX
8
L0D0_0
10
-17.209
20
18.698
0
VERTEX
8
L0D0_0
10
-18.335
20
17.595
0
VERTEX
8
L0D0_0
10
-19.391
20
16.425
0
VERTEX
8
L0D0_0
10
-20.372
20
15.192
0
VERTEX
8
L0D0_0
10
-21.274
20
13.9
0
VERTEX
8
L0D0_0
10
-22.095
20
12.554
0
VERTEX
8
L0D0_0
10
-22.83
20
11.16
0
VERTEX
8
L0D0_0
10
-23.478
20
9.724
0
VERTEX
8
L0D0_0
10
-24.036
20
8.25
0
VERTEX
8
L0D0_0
10
-24.501
20
6.744
0
VERTEX
8
L0D0_0
10
-24.872
20
5.212
0
VERTEX
8
L0D0_0
10
-25.147
20
3.661
0
VERTEX
8
L0D0_0
10
-25.326
20
2.095
0
VERTEX
8
L0D0_0
10
-25.407
20
0.521
0
VERTEX
8
L0D0_0
10
-25.39
20
-1.055
0
VERTEX
8
L0D0_0
10
-25.276
20
-2.627
0
VERTEX
8
L0D0_0
10
-25.065
20
-4.189
0
VERTEX
8
L0D0_0
10
-24.757
20
-5.734
0
VERTEX
8
L0D0_0
10
-24.354
20
-7.258
0
VERTEX
8
L0D0_0
10
-23.857
20
-8.753
0
VERTEX
8
L0D0_0
10
-23.269
20
-10.215
0
VERTEX
8
L0D0_0
10
-22.591
20
-11.638
0
VERTEX
8
L0D0_0
10
-21.826
20
-13.016
0
VERTEX
8
L0D0_0
10
-20.977
20
-14.344
0
VERTEX
8
L0D0_0
10
-20.048
20
-15.616
0
VERTEX
8
L0D0_0
10
-19.041
20
-16.829
0
VERTEX
8
L0D0_0
10
-17.961
20
-17.977
0
VERTEX
8
L0D0_0
10
-16.812
20
-19.056
0
VERTEX
8
L0D0_0
10
-15.599
20
-20.061
0
VERTEX
8
L0D0_0
10
-14.325
20
-20.99
0
VERTEX
8
L0D0_0
10
-12.997
20
-21.837
0
VERTEX
8
L0D0_0
10
-11.618
20
-22.601
0
VERTEX
8
L0D0_0
10
-10.195
20
-23.278
0
VERTEX
8
L0D0_0
10
-8.732
20
-23.865
0
VERTEX
8
L0D0_0
10
-7.984
20
-24.112
0
VERTEX
8
L0D0_0
10
-7.977
20
-24.115
0
VERTEX
8
L0D0_0
10
7.977
20
-24.115
0
VERTEX
8
L0D0_0
10
7.984
20
-24.112
0
VERTEX
8
L0D0_0
10
8.672
20
-23.885
0
VERTEX
8
L0D0_0
10
10.018
20
-23.352
0
VERTEX
8
L0D0_0
10
11.332
20
-22.744
0
VERTEX
8
L0D0_0
10
12.609
20
-22.061
0
VERTEX
8
L0D0_0
10
13.845
20
-21.307
0
VERTEX
8
L0D0_0
10
15.036
20
-20.484
0
VERTEX
8
L0D0_0
10
16.178
20
-19.595
0
VERTEX
8
L0D0_0
10
17.268
20
-18.641
0
VERTEX
8
L0D0_0
10
17.785
20
-18.134
0
VERTEX
8
L0D0_0
10
17.79
20
-18.13
0
VERTEX
8
L0D0_0
10
17.797
20
-18.118
0
VERTEX
8
L0D0_0
10
17.8
20
-18.105
0
VERTEX
8
L0D0_0
10
17.8
20
18.105
0
VERTEX
8
L0D0_0
10
17.797
20
18.118
0
VERTEX
8
L0D0_0
10
17.79
20
18.13
0
VERTEX
8
L0D0_0
10
17.785
20
18.134
0
VERTEX
8
L0D0_0
10
17.222
20
18.686
0
VERTEX
8
L0D0_0
10
16.031
20
19.718
0
VERTEX
8
L0D0_0
10
14.778
20
20.673
0
VERTEX
8
L0D0_0
10
13.468
20
21.55
0
VERTEX
8
L0D0_0
10
12.106
20
22.343
0
VERTEX
8
L0D0_0
10
10.698
20
23.051
0
VERTEX
8
L0D0_0
10
9.249
20
23.669
0
VERTEX
8
L0D0_0
10
7.764
20
24.197
0
VERTEX
8
L0D0_0
10
6.249
20
24.632
0
VERTEX
8
L0D0_0
10
4.71
20
24.972
0
VERTEX
8
L0D0_0
10
3.153
20
25.216
0
VERTEX
8
L0D0_0
10
1.584
20
25.363
0
VERTEX
8
L0D0_0
10
0.009
20
25.412
0
VERTEX
8
L0D0_0
10
-37.216
20
25.412
0
VERTEX
8
L0D0_0
10
-37.173
20
25.65
0
VERTEX
8
L0D0_0
10
-36.956
20
26.53
0
VERTEX
8
L0D0_0
10
-36.686
20
27.395
0
VERTEX
8
L0D0_0
10
-36.365
20
28.243
0
VERTEX
8
L0D0_0
10
-35.992
20
29.07
0
VERTEX
8
L0D0_0
10
-35.571
20
29.872
0
VERTEX
8
L0D0_0
10
-35.102
20
30.648
0
VERTEX
8
L0D0_0
10
-34.587
20
31.394
0
VERTEX
8
L0D0_0
10
-34.028
20
32.108
0
VERTEX
8
L0D0_0
10
-33.427
20
32.786
0
VERTEX
8
L0D0_0
10
-32.786
20
33.427
0
VERTEX
8
L0D0_0
10
-32.108
20
34.028
0
VERTEX
8
L0D0_0
10
-31.394
20
34.587
0
VERTEX
8
L0D0_0
10
-30.648
20
35.102
0
VERTEX
8
L0D0_0
10
-29.872
20
35.571
0
VERTEX
8
L0D0_0
10
-29.07
20
35.992
0
VERTEX
8
L0D0_0
10
-28.243
20
36.365
0
VERTEX
8
L0D0_0
10
-27.395
20
36.686
0
VERTEX
8
L0D0_0
10
-26.53
20
36.956
0
VERTEX
8
L0D0_0
10
-25.65
20
37.173
0
VERTEX
8
L0D0_0
10
-24.758
20
37.336
0
VERTEX
8
L0D0_0
10
-23.858
20
37.445
0
VERTEX
8
L0D0_0
10
-22.953
20
37.5
0
VERTEX
8
L0D0_0
10
22.953
20
37.5
0
VERTEX
8
L0D0_0
10
23.858
20
37.445
0
VERTEX
8
L0D0_0
10
24.758
20
37.336
0
VERTEX
8
L0D0_0
10
25.65
20
37.173
0
VERTEX
8
L0D0_0
10
26.53
20
36.956
0
VERTEX
8
L0D0_0
10
27.395
20
36.686
0
VERTEX
8
L0D0_0
10
28.243
20
36.365
0
VERTEX
8
L0D0_0
10
29.07
20
35.992
0
VERTEX
8
L0D0_0
10
29.872
20
35.571
0
VERTEX
8
L0D0_0
10
30.648
20
35.102
0
VERTEX
8
L0D0_0
10
31.394
20
34.587
0
VERTEX
8
L0D0_0
10
32.108
20
34.028
0
VERTEX
8
L0D0_0
10
32.786
20
33.427
0
VERTEX
8
L0D0_0
10
33.427
20
32.786
0
VERTEX
8
L0D0_0
10
34.028
20
32.108
0
VERTEX
8
L0D0_0
10
34.587
20
31.394
0
VERTEX
8
L0D0_0
10
35.102
20
30.648
0
VERTEX
8
L0D0_0
10
35.571
20
29.872
0
VERTEX
8
L0D0_0
10
35.992
20
29.07
0
VERTEX
8
L0D0_0
10
36.365
20
28.243
0
VERTEX
8
L0D0_0
10
36.686
20
27.395
0
VERTEX
8
L0D0_0
10
36.956
20
26.53
0
VERTEX
8
L0D0_0
10
37.173
20
25.65
0
VERTEX
8
L0D0_0
10
37.336
20
24.758
0
VERTEX
8
L0D0_0
10
37.445
20
23.858
0
VERTEX
8
L0D0_0
10
37.5
20
22.953
0
VERTEX
8
L0D0_0
10
37.5
20
-13.255
0
VERTEX
8
L0D0_0
10
37.409
20
-14.764
0
VERTEX
8
L0D0_0
10
37.227
20
-16.263
0
VERTEX
8
L0D0_0
10
36.954
20
-17.749
0
VERTEX
8
L0D0_0
10
36.593
20
-19.216
0
VERTEX
8
L0D0_0
10
36.143
20
-20.659
0
VERTEX
8
L0D0_0
10
35.608
20
-22.071
0
VERTEX
8
L0D0_0
10
34.987
20
-23.449
0
VERTEX
8
L0D0_0
10
34.285
20
-24.787
0
VERTEX
8
L0D0_0
10
33.504
20
-26.08
0
VERTEX
8
L0D0_0
10
32.645
20
-27.323
0
VERTEX
8
L0D0_0
10
31.714
20
-28.513
0
VERTEX
8
L0D0_0
10
30.712
20
-29.644
0
VERTEX
8
L0D0_0
10
29.644
20
-30.712
0
VERTEX
8
L0D0_0
10
28.513
20
-31.714
0
VERTEX
8
L0D0_0
10
27.323
20
-32.645
0
VERTEX
8
L0D0_0
10
26.08
20
-33.504
0
VERTEX
8
L0D0_0
10
24.787
20
-34.285
0
VERTEX
8
L0D0_0
10
23.449
20
-34.987
0
VERTEX
8
L0D0_0
10
22.071
20
-35.608
0
VERTEX
8
L0D0_0
10
20.659
20
-36.143
0
VERTEX
8
L0D0_0
10
19.216
20
-36.593
0
VERTEX
8
L0D0_0
10
17.749
20
-36.954
0
VERTEX
8
L0D0_0
10
16.263
20
-37.227
0
VERTEX
8
L0D0_0
10
14.764
20
-37.409
0
VERTEX
8
L0D0_0
10
13.255
20
-37.5
0
SEQEND
0
ENDSEC
0
EOF
