0
SECTION
2
HEADER
9
$ACADVER
1
AC1006
0
ENDSEC
0
SECTION
2
TABLES
0
TABLE
2
LAYER
70
1
0
LAYER
70
0
62
1
6
CONTINUOUS
2
L0D0_0
0
ENDTAB
0
ENDSEC
0
SECTION
2
BLOCKS
0
ENDSEC
0
SECTION
2
ENTITIES
0
POLYLINE
8
L0D0_0
70
1
40
0
41
0
66
1
0
VERTEX
8
L0D0_0
10
-18.104
20
-37.5
0
VERTEX
8
L0D0_0
10
-19.311
20
-37.427
0
VERTEX
8
L0D0_0
10
-20.511
20
-37.281
0
VERTEX
8
L0D0_0
10
-21.7
20
-37.063
0
VERTEX
8
L0D0_0
10
-22.873
20
-36.774
0
VERTEX
8
L0D0_0
10
-24.027
20
-36.415
0
VERTEX
8
L0D0_0
10
-25.157
20
-35.986
0
VERTEX
8
L0D0_0
10
-26.259
20
-35.49
0
VERTEX
8
L0D0_0
10
-27.33
20
-34.928
0
VERTEX
8
L0D0_0
10
-28.364
20
-34.303
0
VERTEX
8
L0D0_0
10
-29.359
20
-33.616
0
VERTEX
8
L0D0_0
10
-30.31
20
-32.871
0
VERTEX
8
L0D0_0
10
-31.215
20
-32.069
0
VERTEX
8
L0D0_0
10
-32.069
20
-31.215
0
VERTEX
8
L0D0_0
10
-32.871
20
-30.31
0
VERTEX
8
L0D0_0
10
-33.616
20
-29.359
0
VERTEX
8
L0D0_0
10
-34.303
20
-28.364
0
VERTEX
8
L0D0_0
10
-34.928
20
-27.33
0
VERTEX
8
L0D0_0
10
-35.49
20
-26.259
0
VERTEX
8
L0D0_0
10
-35.986
20
-25.157
0
VERTEX
8
L0D0_0
10
-36.415
20
-24.027
0
VERTEX
8
L0D0_0
10
-36.774
20
-22.873
0
VERTEX
8
L0D0_0
10
-37.063
20
-21.7
0
VERTEX
8
L0D0_0
10
-37.281
20
-20.511
0
VERTEX
8
L0D0_0
10
-37.427
20
-19.311
0
VERTEX
8
L0D0_0
10
-37.5
20
-18.104
0
VERTEX
8
L0D0_0
10
-37.5
20
-2.803
0
VERTEX
8
L0D0_0
10
-9.349
20
-2.803
0
VERTEX
8
L0D0_0
10
-9.832
20
-2.899
0
VERTEX
8
L0D0_0
10
-10.287
20
-3.088
0
VERTEX
8
L0D0_0
10
-10.697
20
-3.361
0
VERTEX
8
L0D0_0
10
-11.045
20
-3.709
0
VERTEX
8
L0D0_0
10
-11.318
20
-4.119
0
VERTEX
8
L0D0_0
10
-11.507
20
-4.574
0
VERTEX
8
L0D0_0
10
-11.592
20
-5
0
VERTEX
8
L0D0_0
10
-11.603
20
-5.057
0
VERTEX
8
L0D0_0
10
-11.603
20
-5.549
0
VERTEX
8
L0D0_0
10
-11.507
20
-6.032
0
VERTEX
8
L0D0_0
10
-11.318
20
-6.487
0
VERTEX
8
L0D0_0
10
-11.045
20
-6.897
0
VERTEX
8
L0D0_0
10
-10.697
20
-7.245
0
VERTEX
8
L0D0_0
10
-10.287
20
-7.518
0
VERTEX
8
L0D0_0
10
-9.832
20
-7.707
0
VERTEX
8
L0D0_0
10
-9.349
20
-7.803
0
VERTEX
8
L0D0_0
10
-8.857
20
-7.803
0
VERTEX
8
L0D0_0
10
-8.374
20
-7.707
0
VERTEX
8
L0D0_0
10
-7.919
20
-7.518
0
VERTEX
8
L0D0_0
10
-7.509
20
-7.245
0
VERTEX
8
L0D0_0
10
-7.161
20
-6.897
0
VERTEX
8
L0D0_0
10
-6.888
20
-6.487
0
VERTEX
8
L0D0_0
10
-6.699
20
-6.032
0
VERTEX
8
L0D0_0
10
-6.603
20
-5.549
0
VERTEX
8
L0D0_0
10
-6.603
20
-5.057
0
VERTEX
8
L0D0_0
10
-6.614
20
-5
0
VERTEX
8
L0D0_0
10
-4.046
20
-5
0
VERTEX
8
L0D0_0
10
-4.529
20
-5.096
0
VERTEX
8
L0D0_0
10
-4.984
20
-5.285
0
VERTEX
8
L0D0_0
10
-5.394
20
-5.558
0
VERTEX
8
L0D0_0
10
-5.742
20
-5.906
0
VERTEX
8
L0D0_0
10
-6.015
20
-6.316
0
VERTEX
8
L0D0_0
10
-6.204
20
-6.771
0
VERTEX
8
L0D0_0
10
-6.3
20
-7.254
0
VERTEX
8
L0D0_0
10
-6.3
20
-7.746
0
VERTEX
8
L0D0_0
10
-6.204
20
-8.229
0
VERTEX
8
L0D0_0
10
-6.015
20
-8.684
0
VERTEX
8
L0D0_0
10
-5.742
20
-9.094
0
VERTEX
8
L0D0_0
10
-5.394
20
-9.442
0
VERTEX
8
L0D0_0
10
-4.984
20
-9.715
0
VERTEX
8
L0D0_0
10
-4.529
20
-9.904
0
VERTEX
8
L0D0_0
10
-4.046
20
-10
0
VERTEX
8
L0D0_0
10
-3.554
20
-10
0
VERTEX
8
L0D0_0
10
-3.071
20
-9.904
0
VERTEX
8
L0D0_0
10
-2.616
20
-9.715
0
VERTEX
8
L0D0_0
10
-2.206
20
-9.442
0
VERTEX
8
L0D0_0
10
-1.858
20
-9.094
0
VERTEX
8
L0D0_0
10
-1.585
20
-8.684
0
VERTEX
8
L0D0_0
10
-1.396
20
-8.229
0
VERTEX
8
L0D0_0
10
-1.3
20
-7.746
0
VERTEX
8
L0D0_0
10
-1.3
20
-7.254
0
VERTEX
8
L0D0_0
10
-1.396
20
-6.771
0
VERTEX
8
L0D0_0
10
-1.585
20
-6.316
0
VERTEX
8
L0D0_0
10
-1.858
20
-5.906
0
VERTEX
8
L0D0_0
10
-2.206
20
-5.558
0
VERTEX
8
L0D0_0
10
-2.616
20
-5.285
0
VERTEX
8
L0D0_0
10
-3.071
20
-5.096
0
VERTEX
8
L0D0_0
10
-3.554
20
-5
0
VERTEX
8
L0D0_0
10
-6.614
20
-5
0
VERTEX
8
L0D0_0
10
-6.699
20
-4.574
0
VERTEX
8
L0D0_0
10
-6.888
20
-4.119
0
VERTEX
8
L0D0_0
10
-7.161
20
-3.709
0
VERTEX
8
L0D0_0
10
-7.509
20
-3.361
0
VERTEX
8
L0D0_0
10
-7.919
20
-3.088
0
VERTEX
8
L0D0_0
10
-8.374
20
-2.899
0
VERTEX
8
L0D0_0
10
-8.857
20
-2.803
0
VERTEX
8
L0D0_0
10
1.257
20
-2.803
0
VERTEX
8
L0D0_0
10
0.774
20
-2.899
0
VERTEX
8
L0D0_0
10
0.319
20
-3.088
0
VERTEX
8
L0D0_0
10
-0.091
20
-3.361
0
VERTEX
8
L0D0_0
10
-0.439
20
-3.709
0
VERTEX
8
L0D0_0
10
-0.712
20
-4.119
0
VERTEX
8
L0D0_0
10
-0.901
20
-4.574
0
VERTEX
8
L0D0_0
10
-0.997
20
-5.057
0
VERTEX
8
L0D0_0
10
-0.997
20
-5.549
0
VERTEX
8
L0D0_0
10
-0.901
20
-6.032
0
VERTEX
8
L0D0_0
10
-0.712
20
-6.487
0
VERTEX
8
L0D0_0
10
-0.439
20
-6.897
0
VERTEX
8
L0D0_0
10
-0.091
20
-7.245
0
VERTEX
8
L0D0_0
10
0.319
20
-7.518
0
VERTEX
8
L0D0_0
10
0.774
20
-7.707
0
VERTEX
8
L0D0_0
10
1.257
20
-7.803
0
VERTEX
8
L0D0_0
10
1.749
20
-7.803
0
VERTEX
8
L0D0_0
10
2.232
20
-7.707
0
VERTEX
8
L0D0_0
10
2.687
20
-7.518
0
VERTEX
8
L0D0_0
10
3.097
20
-7.245
0
VERTEX
8
L0D0_0
10
3.445
20
-6.897
0
VERTEX
8
L0D0_0
10
3.718
20
-6.487
0
VERTEX
8
L0D0_0
10
3.907
20
-6.032
0
VERTEX
8
L0D0_0
10
4.003
20
-5.549
0
VERTEX
8
L0D0_0
10
4.003
20
-5.057
0
VERTEX
8
L0D0_0
10
3.907
20
-4.574
0
VERTEX
8
L0D0_0
10
3.718
20
-4.119
0
VERTEX
8
L0D0_0
10
3.445
20
-3.709
0
VERTEX
8
L0D0_0
10
3.097
20
-3.361
0
VERTEX
8
L0D0_0
10
2.687
20
-3.088
0
VERTEX
8
L0D0_0
10
2.232
20
-2.899
0
VERTEX
8
L0D0_0
10
1.749
20
-2.803
0
VERTEX
8
L0D0_0
10
-37.5
20
-2.803
0
VERTEX
8
L0D0_0
10
-37.5
20
2.5
0
VERTEX
8
L0D0_0
10
-11.546
20
2.5
0
VERTEX
8
L0D0_0
10
-12.029
20
2.404
0
VERTEX
8
L0D0_0
10
-12.484
20
2.215
0
VERTEX
8
L0D0_0
10
-12.894
20
1.942
0
VERTEX
8
L0D0_0
10
-13.242
20
1.594
0
VERTEX
8
L0D0_0
10
-13.515
20
1.184
0
VERTEX
8
L0D0_0
10
-13.704
20
0.729
0
VERTEX
8
L0D0_0
10
-13.8
20
0.246
0
VERTEX
8
L0D0_0
10
-13.8
20
-0.246
0
VERTEX
8
L0D0_0
10
-13.704
20
-0.729
0
VERTEX
8
L0D0_0
10
-13.515
20
-1.184
0
VERTEX
8
L0D0_0
10
-13.242
20
-1.594
0
VERTEX
8
L0D0_0
10
-12.894
20
-1.942
0
VERTEX
8
L0D0_0
10
-12.484
20
-2.215
0
VERTEX
8
L0D0_0
10
-12.029
20
-2.404
0
VERTEX
8
L0D0_0
10
-11.546
20
-2.5
0
VERTEX
8
L0D0_0
10
-11.054
20
-2.5
0
VERTEX
8
L0D0_0
10
-10.571
20
-2.404
0
VERTEX
8
L0D0_0
10
-10.116
20
-2.215
0
VERTEX
8
L0D0_0
10
-9.706
20
-1.942
0
VERTEX
8
L0D0_0
10
-9.358
20
-1.594
0
VERTEX
8
L0D0_0
10
-9.085
20
-1.184
0
VERTEX
8
L0D0_0
10
-8.896
20
-0.729
0
VERTEX
8
L0D0_0
10
-8.8
20
-0.246
0
VERTEX
8
L0D0_0
10
-8.8
20
0.246
0
VERTEX
8
L0D0_0
10
-8.896
20
0.729
0
VERTEX
8
L0D0_0
10
-9.085
20
1.184
0
VERTEX
8
L0D0_0
10
-9.358
20
1.594
0
VERTEX
8
L0D0_0
10
-9.706
20
1.942
0
VERTEX
8
L0D0_0
10
-10.116
20
2.215
0
VERTEX
8
L0D0_0
10
-10.571
20
2.404
0
VERTEX
8
L0D0_0
10
-11.054
20
2.5
0
VERTEX
8
L0D0_0
10
3.454
20
2.5
0
VERTEX
8
L0D0_0
10
2.971
20
2.404
0
VERTEX
8
L0D0_0
10
2.516
20
2.215
0
VERTEX
8
L0D0_0
10
2.106
20
1.942
0
VERTEX
8
L0D0_0
10
1.758
20
1.594
0
VERTEX
8
L0D0_0
10
1.485
20
1.184
0
VERTEX
8
L0D0_0
10
1.296
20
0.729
0
VERTEX
8
L0D0_0
10
1.2
20
0.246
0
VERTEX
8
L0D0_0
10
1.2
20
-0.246
0
VERTEX
8
L0D0_0
10
1.296
20
-0.729
0
VERTEX
8
L0D0_0
10
1.485
20
-1.184
0
VERTEX
8
L0D0_0
10
1.758
20
-1.594
0
VERTEX
8
L0D0_0
10
2.106
20
-1.942
0
VERTEX
8
L0D0_0
10
2.516
20
-2.215
0
VERTEX
8
L0D0_0
10
2.971
20
-2.404
0
VERTEX
8
L0D0_0
10
3.454
20
-2.5
0
VERTEX
8
L0D0_0
10
3.946
20
-2.5
0
VERTEX
8
L0D0_0
10
4.429
20
-2.404
0
VERTEX
8
L0D0_0
10
4.884
20
-2.215
0
VERTEX
8
L0D0_0
10
5.294
20
-1.942
0
VERTEX
8
L0D0_0
10
5.642
20
-1.594
0
VERTEX
8
L0D0_0
10
5.915
20
-1.184
0
VERTEX
8
L0D0_0
10
6.104
20
-0.729
0
VERTEX
8
L0D0_0
10
6.2
20
-0.246
0
VERTEX
8
L0D0_0
10
6.2
20
0.246
0
VERTEX
8
L0D0_0
10
6.104
20
0.729
0
VERTEX
8
L0D0_0
10
5.915
20
1.184
0
VERTEX
8
L0D0_0
10
5.642
20
1.594
0
VERTEX
8
L0D0_0
10
5.294
20
1.942
0
VERTEX
8
L0D0_0
10
4.884
20
2.215
0
VERTEX
8
L0D0_0
10
4.429
20
2.404
0
VERTEX
8
L0D0_0
10
3.946
20
2.5
0
VERTEX
8
L0D0_0
10
-37.5
20
2.5
0
VERTEX
8
L0D0_0
10
-37.5
20
7.803
0
VERTEX
8
L0D0_0
10
-9.349
20
7.803
0
VERTEX
8
L0D0_0
10
-9.832
20
7.707
0
VERTEX
8
L0D0_0
10
-10.287
20
7.518
0
VERTEX
8
L0D0_0
10
-10.697
20
7.245
0
VERTEX
8
L0D0_0
10
-11.045
20
6.897
0
VERTEX
8
L0D0_0
10
-11.318
20
6.487
0
VERTEX
8
L0D0_0
10
-11.507
20
6.032
0
VERTEX
8
L0D0_0
10
-11.603
20
5.549
0
VERTEX
8
L0D0_0
10
-11.603
20
5.057
0
VERTEX
8
L0D0_0
10
-11.507
20
4.574
0
VERTEX
8
L0D0_0
10
-11.318
20
4.119
0
VERTEX
8
L0D0_0
10
-11.045
20
3.709
0
VERTEX
8
L0D0_0
10
-10.697
20
3.361
0
VERTEX
8
L0D0_0
10
-10.287
20
3.088
0
VERTEX
8
L0D0_0
10
-9.832
20
2.899
0
VERTEX
8
L0D0_0
10
-9.349
20
2.803
0
VERTEX
8
L0D0_0
10
-8.857
20
2.803
0
VERTEX
8
L0D0_0
10
-8.374
20
2.899
0
VERTEX
8
L0D0_0
10
-7.919
20
3.088
0
VERTEX
8
L0D0_0
10
-7.509
20
3.361
0
VERTEX
8
L0D0_0
10
-7.161
20
3.709
0
VERTEX
8
L0D0_0
10
-6.888
20
4.119
0
VERTEX
8
L0D0_0
10
-6.699
20
4.574
0
VERTEX
8
L0D0_0
10
-6.603
20
5.057
0
VERTEX
8
L0D0_0
10
-6.603
20
5.549
0
VERTEX
8
L0D0_0
10
-6.699
20
6.032
0
VERTEX
8
L0D0_0
10
-6.888
20
6.487
0
VERTEX
8
L0D0_0
10
-7.161
20
6.897
0
VERTEX
8
L0D0_0
10
-7.509
20
7.245
0
VERTEX
8
L0D0_0
10
-7.919
20
7.518
0
VERTEX
8
L0D0_0
10
-8.374
20
7.707
0
VERTEX
8
L0D0_0
10
-8.857
20
7.803
0
VERTEX
8
L0D0_0
10
-37.5
20
7.803
0
VERTEX
8
L0D0_0
10
-37.5
20
10
0
VERTEX
8
L0D0_0
10
-4.046
20
10
0
VERTEX
8
L0D0_0
10
-4.529
20
9.904
0
VERTEX
8
L0D0_0
10
-4.984
20
9.715
0
VERTEX
8
L0D0_0
10
-5.394
20
9.442
0
VERTEX
8
L0D0_0
10
-5.742
20
9.094
0
VERTEX
8
L0D0_0
10
-6.015
20
8.684
0
VERTEX
8
L0D0_0
10
-6.204
20
8.229
0
VERTEX
8
L0D0_0
10
-6.3
20
7.746
0
VERTEX
8
L0D0_0
10
-6.3
20
7.254
0
VERTEX
8
L0D0_0
10
-6.204
20
6.771
0
VERTEX
8
L0D0_0
10
-6.015
20
6.316
0
VERTEX
8
L0D0_0
10
-5.742
20
5.906
0
VERTEX
8
L0D0_0
10
-5.394
20
5.558
0
VERTEX
8
L0D0_0
10
-4.984
20
5.285
0
VERTEX
8
L0D0_0
10
-4.529
20
5.096
0
VERTEX
8
L0D0_0
10
-4.046
20
5
0
VERTEX
8
L0D0_0
10
-3.554
20
5
0
VERTEX
8
L0D0_0
10
-3.071
20
5.096
0
VERTEX
8
L0D0_0
10
-2.616
20
5.285
0
VERTEX
8
L0D0_0
10
-2.206
20
5.558
0
VERTEX
8
L0D0_0
10
-1.858
20
5.906
0
VERTEX
8
L0D0_0
10
-1.585
20
6.316
0
VERTEX
8
L0D0_0
10
-1.396
20
6.771
0
VERTEX
8
L0D0_0
10
-1.3
20
7.254
0
VERTEX
8
L0D0_0
10
-1.3
20
7.746
0
VERTEX
8
L0D0_0
10
-1.311
20
7.803
0
VERTEX
8
L0D0_0
10
1.257
20
7.803
0
VERTEX
8
L0D0_0
10
0.774
20
7.707
0
VERTEX
8
L0D0_0
10
0.319
20
7.518
0
VERTEX
8
L0D0_0
10
-0.091
20
7.245
0
VERTEX
8
L0D0_0
10
-0.439
20
6.897
0
VERTEX
8
L0D0_0
10
-0.712
20
6.487
0
VERTEX
8
L0D0_0
10
-0.901
20
6.032
0
VERTEX
8
L0D0_0
10
-0.997
20
5.549
0
VERTEX
8
L0D0_0
10
-0.997
20
5.057
0
VERTEX
8
L0D0_0
10
-0.901
20
4.574
0
VERTEX
8
L0D0_0
10
-0.712
20
4.119
0
VERTEX
8
L0D0_0
10
-0.439
20
3.709
0
VERTEX
8
L0D0_0
10
-0.091
20
3.361
0
VERTEX
8
L0D0_0
10
0.319
20
3.088
0
VERTEX
8
L0D0_0
10
0.774
20
2.899
0
VERTEX
8
L0D0_0
10
1.257
20
2.803
0
VERTEX
8
L0D0_0
10
1.749
20
2.803
0
VERTEX
8
L0D0_0
10
2.232
20
2.899
0
VERTEX
8
L0D0_0
10
2.687
20
3.088
0
VERTEX
8
L0D0_0
10
3.097
20
3.361
0
VERTEX
8
L0D0_0
10
3.445
20
3.709
0
VERTEX
8
L0D0_0
10
3.718
20
4.119
0
VERTEX
8
L0D0_0
10
3.907
20
4.574
0
VERTEX
8
L0D0_0
10
4.003
20
5.057
0
VERTEX
8
L0D0_0
10
4.003
20
5.549
0
VERTEX
8
L0D0_0
10
3.907
20
6.032
0
VERTEX
8
L0D0_0
10
3.718
20
6.487
0
VERTEX
8
L0D0_0
10
3.445
20
6.897
0
VERTEX
8
L0D0_0
10
3.097
20
7.245
0
VERTEX
8
L0D0_0
10
2.687
20
7.518
0
VERTEX
8
L0D0_0
10
2.232
20
7.707
0
VERTEX
8
L0D0_0
10
1.749
20
7.803
0
VERTEX
8
L0D0_0
10
-1.311
20
7.803
0
VERTEX
8
L0D0_0
10
-1.396
20
8.229
0
VERTEX
8
L0D0_0
10
-1.585
20
8.684
0
VERTEX
8
L0D0_0
10
-1.858
20
9.094
0
VERTEX
8
L0D0_0
10
-2.206
20
9.442
0
VERTEX
8
L0D0_0
10
-2.616
20
9.715
0
VERTEX
8
L0D0_0
10
-3.071
20
9.904
0
VERTEX
8
L0D0_0
10
-3.554
20
10
0
VERTEX
8
L0D0_0
10
-37.5
20
10
0
VERTEX
8
L0D0_0
10
-37.5
20
22.953
0
VERTEX
8
L0D0_0
10
-37.445
20
23.858
0
VERTEX
8
L0D0_0
10
-37.336
20
24.758
0
VERTEX
8
L0D0_0
10
-37.173
20
25.65
0
VERTEX
8
L0D0_0
10
-36.956
20
26.53
0
VERTEX
8
L0D0_0
10
-36.686
20
27.395
0
VERTEX
8
L0D0_0
10
-36.365
20
28.243
0
VERTEX
8
L0D0_0
10
-35.992
20
29.07
0
VERTEX
8
L0D0_0
10
-35.571
20
29.872
0
VERTEX
8
L0D0_0
10
-35.102
20
30.648
0
VERTEX
8
L0D0_0
10
-34.587
20
31.394
0
VERTEX
8
L0D0_0
10
-34.028
20
32.108
0
VERTEX
8
L0D0_0
10
-33.427
20
32.786
0
VERTEX
8
L0D0_0
10
-32.786
20
33.427
0
VERTEX
8
L0D0_0
10
-32.108
20
34.028
0
VERTEX
8
L0D0_0
10
-31.394
20
34.587
0
VERTEX
8
L0D0_0
10
-30.648
20
35.102
0
VERTEX
8
L0D0_0
10
-29.872
20
35.571
0
VERTEX
8
L0D0_0
10
-29.07
20
35.992
0
VERTEX
8
L0D0_0
10
-28.243
20
36.365
0
VERTEX
8
L0D0_0
10
-27.395
20
36.686
0
VERTEX
8
L0D0_0
10
-26.53
20
36.956
0
VERTEX
8
L0D0_0
10
-25.65
20
37.173
0
VERTEX
8
L0D0_0
10
-24.758
20
37.336
0
VERTEX
8
L0D0_0
10
-23.858
20
37.445
0
VERTEX
8
L0D0_0
10
-22.953
20
37.5
0
VERTEX
8
L0D0_0
10
22.953
20
37.5
0
VERTEX
8
L0D0_0
10
23.858
20
37.445
0
VERTEX
8
L0D0_0
10
24.758
20
37.336
0
VERTEX
8
L0D0_0
10
25.65
20
37.173
0
VERTEX
8
L0D0_0
10
26.53
20
36.956
0
VERTEX
8
L0D0_0
10
27.395
20
36.686
0
VERTEX
8
L0D0_0
10
28.243
20
36.365
0
VERTEX
8
L0D0_0
10
29.07
20
35.992
0
VERTEX
8
L0D0_0
10
29.872
20
35.571
0
VERTEX
8
L0D0_0
10
30.648
20
35.102
0
VERTEX
8
L0D0_0
10
31.394
20
34.587
0
VERTEX
8
L0D0_0
10
32.108
20
34.028
0
VERTEX
8
L0D0_0
10
32.786
20
33.427
0
VERTEX
8
L0D0_0
10
33.427
20
32.786
0
VERTEX
8
L0D0_0
10
34.028
20
32.108
0
VERTEX
8
L0D0_0
10
34.587
20
31.394
0
VERTEX
8
L0D0_0
10
35.102
20
30.648
0
VERTEX
8
L0D0_0
10
35.571
20
29.872
0
VERTEX
8
L0D0_0
10
35.992
20
29.07
0
VERTEX
8
L0D0_0
10
36.365
20
28.243
0
VERTEX
8
L0D0_0
10
36.686
20
27.395
0
VERTEX
8
L0D0_0
10
36.956
20
26.53
0
VERTEX
8
L0D0_0
10
37.173
20
25.65
0
VERTEX
8
L0D0_0
10
37.336
20
24.758
0
VERTEX
8
L0D0_0
10
37.445
20
23.858
0
VERTEX
8
L0D0_0
10
37.5
20
22.953
0
VERTEX
8
L0D0_0
10
37.5
20
-13.255
0
VERTEX
8
L0D0_0
10
37.409
20
-14.764
0
VERTEX
8
L0D0_0
10
37.227
20
-16.263
0
VERTEX
8
L0D0_0
10
36.954
20
-17.749
0
VERTEX
8
L0D0_0
10
36.593
20
-19.216
0
VERTEX
8
L0D0_0
10
36.143
20
-20.659
0
VERTEX
8
L0D0_0
10
35.608
20
-22.071
0
VERTEX
8
L0D0_0
10
34.987
20
-23.449
0
VERTEX
8
L0D0_0
10
34.285
20
-24.787
0
VERTEX
8
L0D0_0
10
33.504
20
-26.08
0
VERTEX
8
L0D0_0
10
32.645
20
-27.323
0
VERTEX
8
L0D0_0
10
31.714
20
-28.513
0
VERTEX
8
L0D0_0
10
30.712
20
-29.644
0
VERTEX
8
L0D0_0
10
29.644
20
-30.712
0
VERTEX
8
L0D0_0
10
28.513
20
-31.714
0
VERTEX
8
L0D0_0
10
27.323
20
-32.645
0
VERTEX
8
L0D0_0
10
26.08
20
-33.504
0
VERTEX
8
L0D0_0
10
24.787
20
-34.285
0
VERTEX
8
L0D0_0
10
23.449
20
-34.987
0
VERTEX
8
L0D0_0
10
22.071
20
-35.608
0
VERTEX
8
L0D0_0
10
20.659
20
-36.143
0
VERTEX
8
L0D0_0
10
19.216
20
-36.593
0
VERTEX
8
L0D0_0
10
17.749
20
-36.954
0
VERTEX
8
L0D0_0
10
16.263
20
-37.227
0
VERTEX
8
L0D0_0
10
14.764
20
-37.409
0
VERTEX
8
L0D0_0
10
13.255
20
-37.5
0
SEQEND
0
ENDSEC
0
EOF
