0
SECTION
2
HEADER
9
$ACADVER
1
AC1006
0
ENDSEC
0
SECTION
2
TABLES
0
TABLE
2
LAYER
70
1
0
LAYER
70
0
62
1
6
CONTINUOUS
2
L0D0_0
0
ENDTAB
0
ENDSEC
0
SECTION
2
BLOCKS
0
ENDSEC
0
SECTION
2
ENTITIES
0
POLYLINE
8
L0D0_0
70
1
40
0
41
0
66
1
0
VERTEX
8
L0D0_0
10
-18.104
20
-37.5
0
VERTEX
8
L0D0_0
10
-19.311
20
-37.427
0
VERTEX
8
L0D0_0
10
-20.511
20
-37.281
0
VERTEX
8
L0D0_0
10
-21.7
20
-37.063
0
VERTEX
8
L0D0_0
10
-22.873
20
-36.774
0
VERTEX
8
L0D0_0
10
-24.027
20
-36.415
0
VERTEX
8
L0D0_0
10
-25.157
20
-35.986
0
VERTEX
8
L0D0_0
10
-26.259
20
-35.49
0
VERTEX
8
L0D0_0
10
-27.33
20
-34.928
0
VERTEX
8
L0D0_0
10
-28.364
20
-34.303
0
VERTEX
8
L0D0_0
10
-29.359
20
-33.616
0
VERTEX
8
L0D0_0
10
-30.31
20
-32.871
0
VERTEX
8
L0D0_0
10
-31.215
20
-32.069
0
VERTEX
8
L0D0_0
10
-32.069
20
-31.215
0
VERTEX
8
L0D0_0
10
-32.871
20
-30.31
0
VERTEX
8
L0D0_0
10
-33.616
20
-29.359
0
VERTEX
8
L0D0_0
10
-34.303
20
-28.364
0
VERTEX
8
L0D0_0
10
-34.928
20
-27.33
0
VERTEX
8
L0D0_0
10
-35.49
20
-26.259
0
VERTEX
8
L0D0_0
10
-35.986
20
-25.157
0
VERTEX
8
L0D0_0
10
-36.415
20
-24.027
0
VERTEX
8
L0D0_0
10
-36.774
20
-22.873
0
VERTEX
8
L0D0_0
10
-37.063
20
-21.7
0
VERTEX
8
L0D0_0
10
-37.281
20
-20.511
0
VERTEX
8
L0D0_0
10
-37.427
20
-19.311
0
VERTEX
8
L0D0_0
10
-37.5
20
-18.104
0
VERTEX
8
L0D0_0
10
-37.5
20
22.953
0
VERTEX
8
L0D0_0
10
-37.445
20
23.858
0
VERTEX
8
L0D0_0
10
-37.406
20
24.184
0
VERTEX
8
L0D0_0
10
-1.726
20
24.184
0
VERTEX
8
L0D0_0
10
-1.735
20
24.183
0
VERTEX
8
L0D0_0
10
-2.491
20
24.129
0
VERTEX
8
L0D0_0
10
-3.993
20
23.926
0
VERTEX
8
L0D0_0
10
-5.479
20
23.63
0
VERTEX
8
L0D0_0
10
-6.944
20
23.242
0
VERTEX
8
L0D0_0
10
-8.382
20
22.763
0
VERTEX
8
L0D0_0
10
-9.787
20
22.195
0
VERTEX
8
L0D0_0
10
-11.154
20
21.54
0
VERTEX
8
L0D0_0
10
-12.478
20
20.801
0
VERTEX
8
L0D0_0
10
-13.753
20
19.982
0
VERTEX
8
L0D0_0
10
-14.974
20
19.084
0
VERTEX
8
L0D0_0
10
-16.136
20
18.111
0
VERTEX
8
L0D0_0
10
-17.236
20
17.068
0
VERTEX
8
L0D0_0
10
-18.268
20
15.958
0
VERTEX
8
L0D0_0
10
-19.229
20
14.786
0
VERTEX
8
L0D0_0
10
-20.115
20
13.556
0
VERTEX
8
L0D0_0
10
-20.923
20
12.274
0
VERTEX
8
L0D0_0
10
-21.648
20
10.943
0
VERTEX
8
L0D0_0
10
-22.289
20
9.57
0
VERTEX
8
L0D0_0
10
-22.844
20
8.159
0
VERTEX
8
L0D0_0
10
-23.309
20
6.716
0
VERTEX
8
L0D0_0
10
-23.683
20
5.248
0
VERTEX
8
L0D0_0
10
-23.964
20
3.758
0
VERTEX
8
L0D0_0
10
-24.152
20
2.254
0
VERTEX
8
L0D0_0
10
-24.246
20
0.742
0
VERTEX
8
L0D0_0
10
-24.245
20
-0.774
0
VERTEX
8
L0D0_0
10
-24.149
20
-2.287
0
VERTEX
8
L0D0_0
10
-23.959
20
-3.79
0
VERTEX
8
L0D0_0
10
-23.675
20
-5.279
0
VERTEX
8
L0D0_0
10
-23.3
20
-6.748
0
VERTEX
8
L0D0_0
10
-22.833
20
-8.19
0
VERTEX
8
L0D0_0
10
-22.277
20
-9.6
0
VERTEX
8
L0D0_0
10
-21.634
20
-10.972
0
VERTEX
8
L0D0_0
10
-20.906
20
-12.302
0
VERTEX
8
L0D0_0
10
-20.097
20
-13.583
0
VERTEX
8
L0D0_0
10
-19.209
20
-14.812
0
VERTEX
8
L0D0_0
10
-18.247
20
-15.983
0
VERTEX
8
L0D0_0
10
-17.213
20
-17.091
0
VERTEX
8
L0D0_0
10
-16.112
20
-18.133
0
VERTEX
8
L0D0_0
10
-14.948
20
-19.104
0
VERTEX
8
L0D0_0
10
-13.726
20
-20
0
VERTEX
8
L0D0_0
10
-12.45
20
-20.818
0
VERTEX
8
L0D0_0
10
-11.126
20
-21.555
0
VERTEX
8
L0D0_0
10
-9.758
20
-22.208
0
VERTEX
8
L0D0_0
10
-8.352
20
-22.774
0
VERTEX
8
L0D0_0
10
-7.632
20
-23.012
0
VERTEX
8
L0D0_0
10
-7.625
20
-23.015
0
VERTEX
8
L0D0_0
10
-1.723
20
-23.015
0
VERTEX
8
L0D0_0
10
-1.708
20
-23.01
0
VERTEX
8
L0D0_0
10
-1.695
20
-23.001
0
VERTEX
8
L0D0_0
10
-1.686
20
-22.988
0
VERTEX
8
L0D0_0
10
-1.681
20
-22.973
0
VERTEX
8
L0D0_0
10
-1.681
20
-18.055
0
VERTEX
8
L0D0_0
10
-1.689
20
-18.037
0
VERTEX
8
L0D0_0
10
-1.703
20
-18.023
0
VERTEX
8
L0D0_0
10
-1.721
20
-18.015
0
VERTEX
8
L0D0_0
10
-6.495
20
-18.015
0
VERTEX
8
L0D0_0
10
-6.503
20
-18.012
0
VERTEX
8
L0D0_0
10
-7.057
20
-17.812
0
VERTEX
8
L0D0_0
10
-8.138
20
-17.345
0
VERTEX
8
L0D0_0
10
-9.188
20
-16.812
0
VERTEX
8
L0D0_0
10
-10.203
20
-16.216
0
VERTEX
8
L0D0_0
10
-11.18
20
-15.559
0
VERTEX
8
L0D0_0
10
-12.115
20
-14.842
0
VERTEX
8
L0D0_0
10
-13.004
20
-14.07
0
VERTEX
8
L0D0_0
10
-13.844
20
-13.244
0
VERTEX
8
L0D0_0
10
-14.631
20
-12.369
0
VERTEX
8
L0D0_0
10
-15.364
20
-11.447
0
VERTEX
8
L0D0_0
10
-16.038
20
-10.481
0
VERTEX
8
L0D0_0
10
-16.651
20
-9.476
0
VERTEX
8
L0D0_0
10
-17.202
20
-8.435
0
VERTEX
8
L0D0_0
10
-17.688
20
-7.363
0
VERTEX
8
L0D0_0
10
-18.107
20
-6.262
0
VERTEX
8
L0D0_0
10
-18.457
20
-5.138
0
VERTEX
8
L0D0_0
10
-18.738
20
-3.994
0
VERTEX
8
L0D0_0
10
-18.948
20
-2.835
0
VERTEX
8
L0D0_0
10
-19.086
20
-1.666
0
VERTEX
8
L0D0_0
10
-19.153
20
-0.49
0
VERTEX
8
L0D0_0
10
-19.147
20
0.687
0
VERTEX
8
L0D0_0
10
-19.068
20
1.862
0
VERTEX
8
L0D0_0
10
-18.918
20
3.03
0
VERTEX
8
L0D0_0
10
-18.696
20
4.187
0
VERTEX
8
L0D0_0
10
-18.403
20
5.327
0
VERTEX
8
L0D0_0
10
-18.041
20
6.448
0
VERTEX
8
L0D0_0
10
-17.611
20
7.544
0
VERTEX
8
L0D0_0
10
-17.114
20
8.612
0
VERTEX
8
L0D0_0
10
-16.553
20
9.647
0
VERTEX
8
L0D0_0
10
-15.929
20
10.646
0
VERTEX
8
L0D0_0
10
-15.245
20
11.604
0
VERTEX
8
L0D0_0
10
-14.503
20
12.519
0
VERTEX
8
L0D0_0
10
-13.707
20
13.386
0
VERTEX
8
L0D0_0
10
-12.859
20
14.203
0
VERTEX
8
L0D0_0
10
-11.962
20
14.966
0
VERTEX
8
L0D0_0
10
-11.02
20
15.673
0
VERTEX
8
L0D0_0
10
-10.036
20
16.32
0
VERTEX
8
L0D0_0
10
-9.014
20
16.906
0
VERTEX
8
L0D0_0
10
-7.959
20
17.428
0
VERTEX
8
L0D0_0
10
-6.873
20
17.884
0
VERTEX
8
L0D0_0
10
-5.761
20
18.272
0
VERTEX
8
L0D0_0
10
-4.628
20
18.592
0
VERTEX
8
L0D0_0
10
-3.477
20
18.841
0
VERTEX
8
L0D0_0
10
-2.313
20
19.019
0
VERTEX
8
L0D0_0
10
-1.727
20
19.072
0
VERTEX
8
L0D0_0
10
-1.717
20
19.073
0
VERTEX
8
L0D0_0
10
-1.701
20
19.081
0
VERTEX
8
L0D0_0
10
-1.688
20
19.095
0
VERTEX
8
L0D0_0
10
-1.681
20
19.112
0
VERTEX
8
L0D0_0
10
-1.681
20
24.141
0
VERTEX
8
L0D0_0
10
-1.687
20
24.157
0
VERTEX
8
L0D0_0
10
-1.697
20
24.17
0
VERTEX
8
L0D0_0
10
-1.71
20
24.179
0
VERTEX
8
L0D0_0
10
-1.726
20
24.184
0
VERTEX
8
L0D0_0
10
-37.406
20
24.184
0
VERTEX
8
L0D0_0
10
-37.4
20
24.23
0
VERTEX
8
L0D0_0
10
0.863
20
24.23
0
VERTEX
8
L0D0_0
10
0.847
20
24.225
0
VERTEX
8
L0D0_0
10
0.834
20
24.216
0
VERTEX
8
L0D0_0
10
0.824
20
24.203
0
VERTEX
8
L0D0_0
10
0.819
20
24.188
0
VERTEX
8
L0D0_0
10
0.819
20
19.171
0
VERTEX
8
L0D0_0
10
0.826
20
19.153
0
VERTEX
8
L0D0_0
10
0.839
20
19.139
0
VERTEX
8
L0D0_0
10
0.857
20
19.131
0
VERTEX
8
L0D0_0
10
0.867
20
19.13
0
VERTEX
8
L0D0_0
10
1.441
20
19.104
0
VERTEX
8
L0D0_0
10
2.586
20
18.983
0
VERTEX
8
L0D0_0
10
3.721
20
18.794
0
VERTEX
8
L0D0_0
10
4.843
20
18.536
0
VERTEX
8
L0D0_0
10
5.948
20
18.212
0
VERTEX
8
L0D0_0
10
7.03
20
17.822
0
VERTEX
8
L0D0_0
10
8.088
20
17.368
0
VERTEX
8
L0D0_0
10
9.116
20
16.851
0
VERTEX
8
L0D0_0
10
10.112
20
16.273
0
VERTEX
8
L0D0_0
10
11.071
20
15.636
0
VERTEX
8
L0D0_0
10
11.53
20
15.29
0
VERTEX
8
L0D0_0
10
11.536
20
15.285
0
VERTEX
8
L0D0_0
10
11.545
20
15.272
0
VERTEX
8
L0D0_0
10
11.55
20
15.258
0
VERTEX
8
L0D0_0
10
11.55
20
-15.258
0
VERTEX
8
L0D0_0
10
11.545
20
-15.272
0
VERTEX
8
L0D0_0
10
11.536
20
-15.285
0
VERTEX
8
L0D0_0
10
11.53
20
-15.29
0
VERTEX
8
L0D0_0
10
11.072
20
-15.635
0
VERTEX
8
L0D0_0
10
10.115
20
-16.271
0
VERTEX
8
L0D0_0
10
9.123
20
-16.847
0
VERTEX
8
L0D0_0
10
8.097
20
-17.363
0
VERTEX
8
L0D0_0
10
7.043
20
-17.817
0
VERTEX
8
L0D0_0
10
6.503
20
-18.012
0
VERTEX
8
L0D0_0
10
6.495
20
-18.015
0
VERTEX
8
L0D0_0
10
0.859
20
-18.015
0
VERTEX
8
L0D0_0
10
0.84
20
-18.023
0
VERTEX
8
L0D0_0
10
0.826
20
-18.037
0
VERTEX
8
L0D0_0
10
0.819
20
-18.055
0
VERTEX
8
L0D0_0
10
0.819
20
-22.975
0
VERTEX
8
L0D0_0
10
0.826
20
-22.993
0
VERTEX
8
L0D0_0
10
0.84
20
-23.007
0
VERTEX
8
L0D0_0
10
0.859
20
-23.015
0
VERTEX
8
L0D0_0
10
6.761
20
-23.015
0
VERTEX
8
L0D0_0
10
6.768
20
-23.013
0
VERTEX
8
L0D0_0
10
7.451
20
-22.812
0
VERTEX
8
L0D0_0
10
8.79
20
-22.33
0
VERTEX
8
L0D0_0
10
10.098
20
-21.77
0
VERTEX
8
L0D0_0
10
11.371
20
-21.133
0
VERTEX
8
L0D0_0
10
12.603
20
-20.422
0
VERTEX
8
L0D0_0
10
13.792
20
-19.639
0
VERTEX
8
L0D0_0
10
14.932
20
-18.787
0
VERTEX
8
L0D0_0
10
16.019
20
-17.869
0
VERTEX
8
L0D0_0
10
16.534
20
-17.379
0
VERTEX
8
L0D0_0
10
16.539
20
-17.374
0
VERTEX
8
L0D0_0
10
16.546
20
-17.362
0
VERTEX
8
L0D0_0
10
16.55
20
-17.349
0
VERTEX
8
L0D0_0
10
16.55
20
17.703
0
VERTEX
8
L0D0_0
10
16.546
20
17.716
0
VERTEX
8
L0D0_0
10
16.539
20
17.728
0
VERTEX
8
L0D0_0
10
16.534
20
17.733
0
VERTEX
8
L0D0_0
10
16.006
20
18.225
0
VERTEX
8
L0D0_0
10
14.893
20
19.145
0
VERTEX
8
L0D0_0
10
13.727
20
19.998
0
VERTEX
8
L0D0_0
10
12.513
20
20.779
0
VERTEX
8
L0D0_0
10
11.254
20
21.487
0
VERTEX
8
L0D0_0
10
9.956
20
22.119
0
VERTEX
8
L0D0_0
10
8.622
20
22.672
0
VERTEX
8
L0D0_0
10
7.257
20
23.145
0
VERTEX
8
L0D0_0
10
5.867
20
23.536
0
VERTEX
8
L0D0_0
10
4.456
20
23.843
0
VERTEX
8
L0D0_0
10
3.03
20
24.066
0
VERTEX
8
L0D0_0
10
1.592
20
24.204
0
VERTEX
8
L0D0_0
10
0.871
20
24.229
0
VERTEX
8
L0D0_0
10
0.863
20
24.23
0
VERTEX
8
L0D0_0
10
-37.4
20
24.23
0
VERTEX
8
L0D0_0
10
-37.336
20
24.758
0
VERTEX
8
L0D0_0
10
-37.173
20
25.65
0
VERTEX
8
L0D0_0
10
-36.956
20
26.53
0
VERTEX
8
L0D0_0
10
-36.686
20
27.395
0
VERTEX
8
L0D0_0
10
-36.365
20
28.243
0
VERTEX
8
L0D0_0
10
-35.992
20
29.07
0
VERTEX
8
L0D0_0
10
-35.571
20
29.872
0
VERTEX
8
L0D0_0
10
-35.102
20
30.648
0
VERTEX
8
L0D0_0
10
-34.587
20
31.394
0
VERTEX
8
L0D0_0
10
-34.028
20
32.108
0
VERTEX
8
L0D0_0
10
-33.427
20
32.786
0
VERTEX
8
L0D0_0
10
-32.786
20
33.427
0
VERTEX
8
L0D0_0
10
-32.108
20
34.028
0
VERTEX
8
L0D0_0
10
-31.394
20
34.587
0
VERTEX
8
L0D0_0
10
-30.648
20
35.102
0
VERTEX
8
L0D0_0
10
-29.872
20
35.571
0
VERTEX
8
L0D0_0
10
-29.07
20
35.992
0
VERTEX
8
L0D0_0
10
-28.243
20
36.365
0
VERTEX
8
L0D0_0
10
-27.395
20
36.686
0
VERTEX
8
L0D0_0
10
-26.53
20
36.956
0
VERTEX
8
L0D0_0
10
-25.65
20
37.173
0
VERTEX
8
L0D0_0
10
-24.758
20
37.336
0
VERTEX
8
L0D0_0
10
-23.858
20
37.445
0
VERTEX
8
L0D0_0
10
-22.953
20
37.5
0
VERTEX
8
L0D0_0
10
22.953
20
37.5
0
VERTEX
8
L0D0_0
10
23.858
20
37.445
0
VERTEX
8
L0D0_0
10
24.758
20
37.336
0
VERTEX
8
L0D0_0
10
25.65
20
37.173
0
VERTEX
8
L0D0_0
10
26.53
20
36.956
0
VERTEX
8
L0D0_0
10
27.395
20
36.686
0
VERTEX
8
L0D0_0
10
28.243
20
36.365
0
VERTEX
8
L0D0_0
10
29.07
20
35.992
0
VERTEX
8
L0D0_0
10
29.872
20
35.571
0
VERTEX
8
L0D0_0
10
30.648
20
35.102
0
VERTEX
8
L0D0_0
10
31.394
20
34.587
0
VERTEX
8
L0D0_0
10
32.108
20
34.028
0
VERTEX
8
L0D0_0
10
32.786
20
33.427
0
VERTEX
8
L0D0_0
10
33.427
20
32.786
0
VERTEX
8
L0D0_0
10
34.028
20
32.108
0
VERTEX
8
L0D0_0
10
34.587
20
31.394
0
VERTEX
8
L0D0_0
10
35.102
20
30.648
0
VERTEX
8
L0D0_0
10
35.571
20
29.872
0
VERTEX
8
L0D0_0
10
35.992
20
29.07
0
VERTEX
8
L0D0_0
10
36.365
20
28.243
0
VERTEX
8
L0D0_0
10
36.686
20
27.395
0
VERTEX
8
L0D0_0
10
36.956
20
26.53
0
VERTEX
8
L0D0_0
10
37.173
20
25.65
0
VERTEX
8
L0D0_0
10
37.336
20
24.758
0
VERTEX
8
L0D0_0
10
37.445
20
23.858
0
VERTEX
8
L0D0_0
10
37.5
20
22.953
0
VERTEX
8
L0D0_0
10
37.5
20
-13.255
0
VERTEX
8
L0D0_0
10
37.409
20
-14.764
0
VERTEX
8
L0D0_0
10
37.227
20
-16.263
0
VERTEX
8
L0D0_0
10
36.954
20
-17.749
0
VERTEX
8
L0D0_0
10
36.593
20
-19.216
0
VERTEX
8
L0D0_0
10
36.143
20
-20.659
0
VERTEX
8
L0D0_0
10
35.608
20
-22.071
0
VERTEX
8
L0D0_0
10
34.987
20
-23.449
0
VERTEX
8
L0D0_0
10
34.285
20
-24.787
0
VERTEX
8
L0D0_0
10
33.504
20
-26.08
0
VERTEX
8
L0D0_0
10
32.645
20
-27.323
0
VERTEX
8
L0D0_0
10
31.714
20
-28.513
0
VERTEX
8
L0D0_0
10
30.712
20
-29.644
0
VERTEX
8
L0D0_0
10
29.644
20
-30.712
0
VERTEX
8
L0D0_0
10
28.513
20
-31.714
0
VERTEX
8
L0D0_0
10
27.323
20
-32.645
0
VERTEX
8
L0D0_0
10
26.08
20
-33.504
0
VERTEX
8
L0D0_0
10
24.787
20
-34.285
0
VERTEX
8
L0D0_0
10
23.449
20
-34.987
0
VERTEX
8
L0D0_0
10
22.071
20
-35.608
0
VERTEX
8
L0D0_0
10
20.659
20
-36.143
0
VERTEX
8
L0D0_0
10
19.216
20
-36.593
0
VERTEX
8
L0D0_0
10
17.749
20
-36.954
0
VERTEX
8
L0D0_0
10
16.263
20
-37.227
0
VERTEX
8
L0D0_0
10
14.764
20
-37.409
0
VERTEX
8
L0D0_0
10
13.255
20
-37.5
0
SEQEND
0
ENDSEC
0
EOF
