0
SECTION
2
HEADER
9
$ACADVER
1
AC1006
0
ENDSEC
0
SECTION
2
TABLES
0
TABLE
2
LAYER
70
1
0
LAYER
70
0
62
1
6
CONTINUOUS
2
L0D0_0
0
ENDTAB
0
ENDSEC
0
SECTION
2
BLOCKS
0
ENDSEC
0
SECTION
2
ENTITIES
0
POLYLINE
8
L0D0_0
70
1
40
0
41
0
66
1
0
VERTEX
8
L0D0_0
10
-22.953
20
-37.5
0
VERTEX
8
L0D0_0
10
-23.858
20
-37.445
0
VERTEX
8
L0D0_0
10
-24.758
20
-37.336
0
VERTEX
8
L0D0_0
10
-25.65
20
-37.173
0
VERTEX
8
L0D0_0
10
-26.53
20
-36.956
0
VERTEX
8
L0D0_0
10
-27.395
20
-36.686
0
VERTEX
8
L0D0_0
10
-28.243
20
-36.365
0
VERTEX
8
L0D0_0
10
-29.07
20
-35.992
0
VERTEX
8
L0D0_0
10
-29.872
20
-35.571
0
VERTEX
8
L0D0_0
10
-30.648
20
-35.102
0
VERTEX
8
L0D0_0
10
-31.394
20
-34.587
0
VERTEX
8
L0D0_0
10
-32.108
20
-34.028
0
VERTEX
8
L0D0_0
10
-32.786
20
-33.427
0
VERTEX
8
L0D0_0
10
-33.427
20
-32.786
0
VERTEX
8
L0D0_0
10
-34.028
20
-32.108
0
VERTEX
8
L0D0_0
10
-34.587
20
-31.394
0
VERTEX
8
L0D0_0
10
-35.102
20
-30.648
0
VERTEX
8
L0D0_0
10
-35.571
20
-29.872
0
VERTEX
8
L0D0_0
10
-35.992
20
-29.07
0
VERTEX
8
L0D0_0
10
-36.365
20
-28.243
0
VERTEX
8
L0D0_0
10
-36.686
20
-27.395
0
VERTEX
8
L0D0_0
10
-36.956
20
-26.53
0
VERTEX
8
L0D0_0
10
-37.173
20
-25.65
0
VERTEX
8
L0D0_0
10
-37.336
20
-24.758
0
VERTEX
8
L0D0_0
10
-37.445
20
-23.858
0
VERTEX
8
L0D0_0
10
-37.5
20
-22.953
0
VERTEX
8
L0D0_0
10
-37.5
20
13.255
0
VERTEX
8
L0D0_0
10
-37.409
20
14.764
0
VERTEX
8
L0D0_0
10
-37.227
20
16.263
0
VERTEX
8
L0D0_0
10
-36.954
20
17.749
0
VERTEX
8
L0D0_0
10
-36.618
20
19.115
0
VERTEX
8
L0D0_0
10
-16.727
20
19.115
0
VERTEX
8
L0D0_0
10
-17.28
20
18.631
0
VERTEX
8
L0D0_0
10
-17.805
20
18.115
0
VERTEX
8
L0D0_0
10
-17.805
20
-18.115
0
VERTEX
8
L0D0_0
10
-17.25
20
-18.66
0
VERTEX
8
L0D0_0
10
-16.076
20
-19.68
0
VERTEX
8
L0D0_0
10
-14.843
20
-20.627
0
VERTEX
8
L0D0_0
10
-13.553
20
-21.496
0
VERTEX
8
L0D0_0
10
-12.213
20
-22.285
0
VERTEX
8
L0D0_0
10
-10.827
20
-22.99
0
VERTEX
8
L0D0_0
10
-9.4
20
-23.609
0
VERTEX
8
L0D0_0
10
-7.939
20
-24.14
0
VERTEX
8
L0D0_0
10
-6.447
20
-24.58
0
VERTEX
8
L0D0_0
10
-4.931
20
-24.929
0
VERTEX
8
L0D0_0
10
-3.397
20
-25.184
0
VERTEX
8
L0D0_0
10
-1.851
20
-25.344
0
VERTEX
8
L0D0_0
10
-0.297
20
-25.41
0
VERTEX
8
L0D0_0
10
1.258
20
-25.381
0
VERTEX
8
L0D0_0
10
2.808
20
-25.256
0
VERTEX
8
L0D0_0
10
4.348
20
-25.037
0
VERTEX
8
L0D0_0
10
5.871
20
-24.724
0
VERTEX
8
L0D0_0
10
7.372
20
-24.319
0
VERTEX
8
L0D0_0
10
8.846
20
-23.822
0
VERTEX
8
L0D0_0
10
10.287
20
-23.237
0
VERTEX
8
L0D0_0
10
11.689
20
-22.564
0
VERTEX
8
L0D0_0
10
13.047
20
-21.807
0
VERTEX
8
L0D0_0
10
14.357
20
-20.968
0
VERTEX
8
L0D0_0
10
15.612
20
-20.05
0
VERTEX
8
L0D0_0
10
16.81
20
-19.058
0
VERTEX
8
L0D0_0
10
17.377
20
-18.526
0
VERTEX
8
L0D0_0
10
17.407
20
-18.497
0
VERTEX
8
L0D0_0
10
17.463
20
-18.436
0
VERTEX
8
L0D0_0
10
17.513
20
-18.369
0
VERTEX
8
L0D0_0
10
17.558
20
-18.299
0
VERTEX
8
L0D0_0
10
17.597
20
-18.225
0
VERTEX
8
L0D0_0
10
17.629
20
-18.149
0
VERTEX
8
L0D0_0
10
17.656
20
-18.07
0
VERTEX
8
L0D0_0
10
17.675
20
-17.988
0
VERTEX
8
L0D0_0
10
17.687
20
-17.906
0
VERTEX
8
L0D0_0
10
17.693
20
-17.823
0
VERTEX
8
L0D0_0
10
17.692
20
-17.74
0
VERTEX
8
L0D0_0
10
17.684
20
-17.657
0
VERTEX
8
L0D0_0
10
17.669
20
-17.575
0
VERTEX
8
L0D0_0
10
17.658
20
-17.535
0
VERTEX
8
L0D0_0
10
17.646
20
-17.492
0
VERTEX
8
L0D0_0
10
17.631
20
-17.405
0
VERTEX
8
L0D0_0
10
17.623
20
-17.318
0
VERTEX
8
L0D0_0
10
17.623
20
-17.23
0
VERTEX
8
L0D0_0
10
17.63
20
-17.142
0
VERTEX
8
L0D0_0
10
17.646
20
-17.055
0
VERTEX
8
L0D0_0
10
17.669
20
-16.97
0
VERTEX
8
L0D0_0
10
17.699
20
-16.887
0
VERTEX
8
L0D0_0
10
17.737
20
-16.807
0
VERTEX
8
L0D0_0
10
17.781
20
-16.731
0
VERTEX
8
L0D0_0
10
17.832
20
-16.659
0
VERTEX
8
L0D0_0
10
17.889
20
-16.592
0
VERTEX
8
L0D0_0
10
17.952
20
-16.53
0
VERTEX
8
L0D0_0
10
18.02
20
-16.474
0
VERTEX
8
L0D0_0
10
18.092
20
-16.424
0
VERTEX
8
L0D0_0
10
18.169
20
-16.381
0
VERTEX
8
L0D0_0
10
18.249
20
-16.344
0
VERTEX
8
L0D0_0
10
18.332
20
-16.315
0
VERTEX
8
L0D0_0
10
18.418
20
-16.293
0
VERTEX
8
L0D0_0
10
18.505
20
-16.279
0
VERTEX
8
L0D0_0
10
18.592
20
-16.272
0
VERTEX
8
L0D0_0
10
18.68
20
-16.274
0
VERTEX
8
L0D0_0
10
18.768
20
-16.282
0
VERTEX
8
L0D0_0
10
18.811
20
-16.291
0
VERTEX
8
L0D0_0
10
18.852
20
-16.299
0
VERTEX
8
L0D0_0
10
18.935
20
-16.308
0
VERTEX
8
L0D0_0
10
19.018
20
-16.309
0
VERTEX
8
L0D0_0
10
19.102
20
-16.304
0
VERTEX
8
L0D0_0
10
19.184
20
-16.293
0
VERTEX
8
L0D0_0
10
19.265
20
-16.274
0
VERTEX
8
L0D0_0
10
19.345
20
-16.248
0
VERTEX
8
L0D0_0
10
19.422
20
-16.217
0
VERTEX
8
L0D0_0
10
19.496
20
-16.178
0
VERTEX
8
L0D0_0
10
19.566
20
-16.134
0
VERTEX
8
L0D0_0
10
19.633
20
-16.084
0
VERTEX
8
L0D0_0
10
19.695
20
-16.029
0
VERTEX
8
L0D0_0
10
19.753
20
-15.969
0
VERTEX
8
L0D0_0
10
19.779
20
-15.936
0
VERTEX
8
L0D0_0
10
20.267
20
-15.331
0
VERTEX
8
L0D0_0
10
21.166
20
-14.062
0
VERTEX
8
L0D0_0
10
21.987
20
-12.741
0
VERTEX
8
L0D0_0
10
22.725
20
-11.372
0
VERTEX
8
L0D0_0
10
23.378
20
-9.961
0
VERTEX
8
L0D0_0
10
23.944
20
-8.512
0
VERTEX
8
L0D0_0
10
24.42
20
-7.032
0
VERTEX
8
L0D0_0
10
24.804
20
-5.525
0
VERTEX
8
L0D0_0
10
25.096
20
-3.998
0
VERTEX
8
L0D0_0
10
25.293
20
-2.455
0
VERTEX
8
L0D0_0
10
25.396
20
-0.903
0
VERTEX
8
L0D0_0
10
25.404
20
0.652
0
VERTEX
8
L0D0_0
10
25.316
20
2.205
0
VERTEX
8
L0D0_0
10
25.134
20
3.749
0
VERTEX
8
L0D0_0
10
24.857
20
5.279
0
VERTEX
8
L0D0_0
10
24.488
20
6.79
0
VERTEX
8
L0D0_0
10
24.027
20
8.275
0
VERTEX
8
L0D0_0
10
23.476
20
9.729
0
VERTEX
8
L0D0_0
10
22.837
20
11.147
0
VERTEX
8
L0D0_0
10
22.112
20
12.523
0
VERTEX
8
L0D0_0
10
21.305
20
13.852
0
VERTEX
8
L0D0_0
10
20.417
20
15.129
0
VERTEX
8
L0D0_0
10
19.454
20
16.35
0
VERTEX
8
L0D0_0
10
18.417
20
17.509
0
VERTEX
8
L0D0_0
10
17.312
20
18.603
0
VERTEX
8
L0D0_0
10
16.727
20
19.115
0
VERTEX
8
L0D0_0
10
-36.618
20
19.115
0
VERTEX
8
L0D0_0
10
-36.593
20
19.216
0
VERTEX
8
L0D0_0
10
-36.143
20
20.659
0
VERTEX
8
L0D0_0
10
-35.608
20
22.071
0
VERTEX
8
L0D0_0
10
-34.987
20
23.449
0
VERTEX
8
L0D0_0
10
-34.285
20
24.787
0
VERTEX
8
L0D0_0
10
-33.504
20
26.08
0
VERTEX
8
L0D0_0
10
-32.645
20
27.323
0
VERTEX
8
L0D0_0
10
-31.714
20
28.513
0
VERTEX
8
L0D0_0
10
-30.712
20
29.644
0
VERTEX
8
L0D0_0
10
-29.644
20
30.712
0
VERTEX
8
L0D0_0
10
-28.513
20
31.714
0
VERTEX
8
L0D0_0
10
-27.323
20
32.645
0
VERTEX
8
L0D0_0
10
-26.08
20
33.504
0
VERTEX
8
L0D0_0
10
-24.787
20
34.285
0
VERTEX
8
L0D0_0
10
-23.449
20
34.987
0
VERTEX
8
L0D0_0
10
-22.071
20
35.608
0
VERTEX
8
L0D0_0
10
-20.659
20
36.143
0
VERTEX
8
L0D0_0
10
-19.216
20
36.593
0
VERTEX
8
L0D0_0
10
-17.749
20
36.954
0
VERTEX
8
L0D0_0
10
-16.263
20
37.227
0
VERTEX
8
L0D0_0
10
-14.764
20
37.409
0
VERTEX
8
L0D0_0
10
-13.255
20
37.5
0
VERTEX
8
L0D0_0
10
18.104
20
37.5
0
VERTEX
8
L0D0_0
10
19.311
20
37.427
0
VERTEX
8
L0D0_0
10
20.511
20
37.281
0
VERTEX
8
L0D0_0
10
21.7
20
37.063
0
VERTEX
8
L0D0_0
10
22.873
20
36.774
0
VERTEX
8
L0D0_0
10
24.027
20
36.415
0
VERTEX
8
L0D0_0
10
25.157
20
35.986
0
VERTEX
8
L0D0_0
10
26.259
20
35.49
0
VERTEX
8
L0D0_0
10
27.33
20
34.928
0
VERTEX
8
L0D0_0
10
28.364
20
34.303
0
VERTEX
8
L0D0_0
10
29.359
20
33.616
0
VERTEX
8
L0D0_0
10
30.31
20
32.871
0
VERTEX
8
L0D0_0
10
31.215
20
32.069
0
VERTEX
8
L0D0_0
10
32.069
20
31.215
0
VERTEX
8
L0D0_0
10
32.871
20
30.31
0
VERTEX
8
L0D0_0
10
33.616
20
29.359
0
VERTEX
8
L0D0_0
10
34.303
20
28.364
0
VERTEX
8
L0D0_0
10
34.928
20
27.33
0
VERTEX
8
L0D0_0
10
35.49
20
26.259
0
VERTEX
8
L0D0_0
10
35.986
20
25.157
0
VERTEX
8
L0D0_0
10
36.415
20
24.027
0
VERTEX
8
L0D0_0
10
36.774
20
22.873
0
VERTEX
8
L0D0_0
10
37.063
20
21.7
0
VERTEX
8
L0D0_0
10
37.281
20
20.511
0
VERTEX
8
L0D0_0
10
37.427
20
19.311
0
VERTEX
8
L0D0_0
10
37.5
20
18.104
0
VERTEX
8
L0D0_0
10
37.5
20
-22.953
0
VERTEX
8
L0D0_0
10
37.445
20
-23.858
0
VERTEX
8
L0D0_0
10
37.336
20
-24.758
0
VERTEX
8
L0D0_0
10
37.173
20
-25.65
0
VERTEX
8
L0D0_0
10
36.956
20
-26.53
0
VERTEX
8
L0D0_0
10
36.686
20
-27.395
0
VERTEX
8
L0D0_0
10
36.365
20
-28.243
0
VERTEX
8
L0D0_0
10
35.992
20
-29.07
0
VERTEX
8
L0D0_0
10
35.571
20
-29.872
0
VERTEX
8
L0D0_0
10
35.102
20
-30.648
0
VERTEX
8
L0D0_0
10
34.587
20
-31.394
0
VERTEX
8
L0D0_0
10
34.028
20
-32.108
0
VERTEX
8
L0D0_0
10
33.427
20
-32.786
0
VERTEX
8
L0D0_0
10
32.786
20
-33.427
0
VERTEX
8
L0D0_0
10
32.108
20
-34.028
0
VERTEX
8
L0D0_0
10
31.394
20
-34.587
0
VERTEX
8
L0D0_0
10
30.648
20
-35.102
0
VERTEX
8
L0D0_0
10
29.872
20
-35.571
0
VERTEX
8
L0D0_0
10
29.07
20
-35.992
0
VERTEX
8
L0D0_0
10
28.243
20
-36.365
0
VERTEX
8
L0D0_0
10
27.395
20
-36.686
0
VERTEX
8
L0D0_0
10
26.53
20
-36.956
0
VERTEX
8
L0D0_0
10
25.65
20
-37.173
0
VERTEX
8
L0D0_0
10
24.758
20
-37.336
0
VERTEX
8
L0D0_0
10
23.858
20
-37.445
0
VERTEX
8
L0D0_0
10
22.953
20
-37.5
0
SEQEND
0
ENDSEC
0
EOF
