0
SECTION
2
HEADER
9
$ACADVER
1
AC1006
0
ENDSEC
0
SECTION
2
TABLES
0
TABLE
2
LAYER
70
1
0
LAYER
70
0
62
1
6
CONTINUOUS
2
L0D0_0
0
ENDTAB
0
ENDSEC
0
SECTION
2
BLOCKS
0
ENDSEC
0
SECTION
2
ENTITIES
0
POLYLINE
8
L0D0_0
70
1
40
0
41
0
66
1
0
VERTEX
8
L0D0_0
10
-22.953
20
-37.5
0
VERTEX
8
L0D0_0
10
-23.858
20
-37.445
0
VERTEX
8
L0D0_0
10
-24.758
20
-37.336
0
VERTEX
8
L0D0_0
10
-25.65
20
-37.173
0
VERTEX
8
L0D0_0
10
-26.53
20
-36.956
0
VERTEX
8
L0D0_0
10
-27.395
20
-36.686
0
VERTEX
8
L0D0_0
10
-28.243
20
-36.365
0
VERTEX
8
L0D0_0
10
-29.07
20
-35.992
0
VERTEX
8
L0D0_0
10
-29.872
20
-35.571
0
VERTEX
8
L0D0_0
10
-30.648
20
-35.102
0
VERTEX
8
L0D0_0
10
-31.394
20
-34.587
0
VERTEX
8
L0D0_0
10
-32.108
20
-34.028
0
VERTEX
8
L0D0_0
10
-32.786
20
-33.427
0
VERTEX
8
L0D0_0
10
-33.427
20
-32.786
0
VERTEX
8
L0D0_0
10
-34.028
20
-32.108
0
VERTEX
8
L0D0_0
10
-34.587
20
-31.394
0
VERTEX
8
L0D0_0
10
-35.102
20
-30.648
0
VERTEX
8
L0D0_0
10
-35.571
20
-29.872
0
VERTEX
8
L0D0_0
10
-35.992
20
-29.07
0
VERTEX
8
L0D0_0
10
-36.365
20
-28.243
0
VERTEX
8
L0D0_0
10
-36.686
20
-27.395
0
VERTEX
8
L0D0_0
10
-36.956
20
-26.53
0
VERTEX
8
L0D0_0
10
-37.173
20
-25.65
0
VERTEX
8
L0D0_0
10
-37.336
20
-24.758
0
VERTEX
8
L0D0_0
10
-37.445
20
-23.858
0
VERTEX
8
L0D0_0
10
-37.5
20
-22.953
0
VERTEX
8
L0D0_0
10
-37.5
20
13.255
0
VERTEX
8
L0D0_0
10
-37.409
20
14.764
0
VERTEX
8
L0D0_0
10
-37.227
20
16.263
0
VERTEX
8
L0D0_0
10
-36.954
20
17.749
0
VERTEX
8
L0D0_0
10
-36.593
20
19.216
0
VERTEX
8
L0D0_0
10
-36.143
20
20.659
0
VERTEX
8
L0D0_0
10
-35.608
20
22.071
0
VERTEX
8
L0D0_0
10
-34.987
20
23.449
0
VERTEX
8
L0D0_0
10
-34.638
20
24.115
0
VERTEX
8
L0D0_0
10
-7.977
20
24.115
0
VERTEX
8
L0D0_0
10
-8.655
20
23.891
0
VERTEX
8
L0D0_0
10
-9.984
20
23.366
0
VERTEX
8
L0D0_0
10
-11.281
20
22.768
0
VERTEX
8
L0D0_0
10
-12.543
20
22.098
0
VERTEX
8
L0D0_0
10
-13.765
20
21.359
0
VERTEX
8
L0D0_0
10
-14.944
20
20.551
0
VERTEX
8
L0D0_0
10
-15.51
20
20.115
0
VERTEX
8
L0D0_0
10
7.304
20
20.115
0
VERTEX
8
L0D0_0
10
7.928
20
19.888
0
VERTEX
8
L0D0_0
10
9.147
20
19.358
0
VERTEX
8
L0D0_0
10
10.33
20
18.753
0
VERTEX
8
L0D0_0
10
11.474
20
18.076
0
VERTEX
8
L0D0_0
10
12.573
20
17.33
0
VERTEX
8
L0D0_0
10
13.624
20
16.517
0
VERTEX
8
L0D0_0
10
14.622
20
15.64
0
VERTEX
8
L0D0_0
10
15.564
20
14.703
0
VERTEX
8
L0D0_0
10
16.446
20
13.709
0
VERTEX
8
L0D0_0
10
17.265
20
12.662
0
VERTEX
8
L0D0_0
10
18.017
20
11.567
0
VERTEX
8
L0D0_0
10
18.7
20
10.427
0
VERTEX
8
L0D0_0
10
19.311
20
9.247
0
VERTEX
8
L0D0_0
10
19.847
20
8.031
0
VERTEX
8
L0D0_0
10
20.307
20
6.784
0
VERTEX
8
L0D0_0
10
20.689
20
5.512
0
VERTEX
8
L0D0_0
10
20.991
20
4.218
0
VERTEX
8
L0D0_0
10
21.212
20
2.907
0
VERTEX
8
L0D0_0
10
21.351
20
1.586
0
VERTEX
8
L0D0_0
10
21.409
20
0.258
0
VERTEX
8
L0D0_0
10
21.384
20
-1.07
0
VERTEX
8
L0D0_0
10
21.276
20
-2.395
0
VERTEX
8
L0D0_0
10
21.086
20
-3.71
0
VERTEX
8
L0D0_0
10
20.816
20
-5.011
0
VERTEX
8
L0D0_0
10
20.465
20
-6.292
0
VERTEX
8
L0D0_0
10
20.035
20
-7.55
0
VERTEX
8
L0D0_0
10
19.528
20
-8.778
0
VERTEX
8
L0D0_0
10
18.946
20
-9.973
0
VERTEX
8
L0D0_0
10
18.291
20
-11.129
0
VERTEX
8
L0D0_0
10
17.565
20
-12.242
0
VERTEX
8
L0D0_0
10
16.772
20
-13.308
0
VERTEX
8
L0D0_0
10
15.914
20
-14.323
0
VERTEX
8
L0D0_0
10
14.995
20
-15.282
0
VERTEX
8
L0D0_0
10
14.018
20
-16.183
0
VERTEX
8
L0D0_0
10
12.987
20
-17.021
0
VERTEX
8
L0D0_0
10
11.906
20
-17.794
0
VERTEX
8
L0D0_0
10
10.78
20
-18.499
0
VERTEX
8
L0D0_0
10
9.611
20
-19.132
0
VERTEX
8
L0D0_0
10
8.406
20
-19.691
0
VERTEX
8
L0D0_0
10
7.168
20
-20.175
0
VERTEX
8
L0D0_0
10
5.903
20
-20.58
0
VERTEX
8
L0D0_0
10
4.615
20
-20.907
0
VERTEX
8
L0D0_0
10
3.309
20
-21.153
0
VERTEX
8
L0D0_0
10
1.991
20
-21.318
0
VERTEX
8
L0D0_0
10
0.664
20
-21.4
0
VERTEX
8
L0D0_0
10
0
20
-21.4
0
VERTEX
8
L0D0_0
10
0
20
-25.4
0
VERTEX
8
L0D0_0
10
0.797
20
-25.4
0
VERTEX
8
L0D0_0
10
2.387
20
-25.3
0
VERTEX
8
L0D0_0
10
3.968
20
-25.101
0
VERTEX
8
L0D0_0
10
5.533
20
-24.803
0
VERTEX
8
L0D0_0
10
7.077
20
-24.407
0
VERTEX
8
L0D0_0
10
8.593
20
-23.916
0
VERTEX
8
L0D0_0
10
10.075
20
-23.33
0
VERTEX
8
L0D0_0
10
11.517
20
-22.653
0
VERTEX
8
L0D0_0
10
12.914
20
-21.887
0
VERTEX
8
L0D0_0
10
14.26
20
-21.034
0
VERTEX
8
L0D0_0
10
15.551
20
-20.099
0
VERTEX
8
L0D0_0
10
16.78
20
-19.085
0
VERTEX
8
L0D0_0
10
17.943
20
-17.996
0
VERTEX
8
L0D0_0
10
19.036
20
-16.836
0
VERTEX
8
L0D0_0
10
20.053
20
-15.61
0
VERTEX
8
L0D0_0
10
20.992
20
-14.322
0
VERTEX
8
L0D0_0
10
21.848
20
-12.978
0
VERTEX
8
L0D0_0
10
22.619
20
-11.584
0
VERTEX
8
L0D0_0
10
23.3
20
-10.143
0
VERTEX
8
L0D0_0
10
23.89
20
-8.663
0
VERTEX
8
L0D0_0
10
24.386
20
-7.149
0
VERTEX
8
L0D0_0
10
24.786
20
-5.606
0
VERTEX
8
L0D0_0
10
25.089
20
-4.042
0
VERTEX
8
L0D0_0
10
25.293
20
-2.461
0
VERTEX
8
L0D0_0
10
25.398
20
-0.871
0
VERTEX
8
L0D0_0
10
25.402
20
0.722
0
VERTEX
8
L0D0_0
10
25.307
20
2.313
0
VERTEX
8
L0D0_0
10
25.112
20
3.894
0
VERTEX
8
L0D0_0
10
24.819
20
5.46
0
VERTEX
8
L0D0_0
10
24.428
20
7.005
0
VERTEX
8
L0D0_0
10
23.941
20
8.522
0
VERTEX
8
L0D0_0
10
23.36
20
10.006
0
VERTEX
8
L0D0_0
10
22.687
20
11.45
0
VERTEX
8
L0D0_0
10
21.924
20
12.85
0
VERTEX
8
L0D0_0
10
21.076
20
14.199
0
VERTEX
8
L0D0_0
10
20.145
20
15.492
0
VERTEX
8
L0D0_0
10
19.134
20
16.724
0
VERTEX
8
L0D0_0
10
18.048
20
17.89
0
VERTEX
8
L0D0_0
10
16.892
20
18.986
0
VERTEX
8
L0D0_0
10
15.669
20
20.007
0
VERTEX
8
L0D0_0
10
14.384
20
20.95
0
VERTEX
8
L0D0_0
10
13.043
20
21.81
0
VERTEX
8
L0D0_0
10
11.65
20
22.585
0
VERTEX
8
L0D0_0
10
10.212
20
23.271
0
VERTEX
8
L0D0_0
10
8.733
20
23.865
0
VERTEX
8
L0D0_0
10
7.977
20
24.115
0
VERTEX
8
L0D0_0
10
-34.638
20
24.115
0
VERTEX
8
L0D0_0
10
-34.285
20
24.787
0
VERTEX
8
L0D0_0
10
-33.504
20
26.08
0
VERTEX
8
L0D0_0
10
-32.645
20
27.323
0
VERTEX
8
L0D0_0
10
-31.714
20
28.513
0
VERTEX
8
L0D0_0
10
-30.712
20
29.644
0
VERTEX
8
L0D0_0
10
-29.644
20
30.712
0
VERTEX
8
L0D0_0
10
-28.513
20
31.714
0
VERTEX
8
L0D0_0
10
-27.323
20
32.645
0
VERTEX
8
L0D0_0
10
-26.08
20
33.504
0
VERTEX
8
L0D0_0
10
-24.787
20
34.285
0
VERTEX
8
L0D0_0
10
-23.449
20
34.987
0
VERTEX
8
L0D0_0
10
-22.071
20
35.608
0
VERTEX
8
L0D0_0
10
-20.659
20
36.143
0
VERTEX
8
L0D0_0
10
-19.216
20
36.593
0
VERTEX
8
L0D0_0
10
-17.749
20
36.954
0
VERTEX
8
L0D0_0
10
-16.263
20
37.227
0
VERTEX
8
L0D0_0
10
-14.764
20
37.409
0
VERTEX
8
L0D0_0
10
-13.255
20
37.5
0
VERTEX
8
L0D0_0
10
18.104
20
37.5
0
VERTEX
8
L0D0_0
10
19.311
20
37.427
0
VERTEX
8
L0D0_0
10
20.511
20
37.281
0
VERTEX
8
L0D0_0
10
21.7
20
37.063
0
VERTEX
8
L0D0_0
10
22.873
20
36.774
0
VERTEX
8
L0D0_0
10
24.027
20
36.415
0
VERTEX
8
L0D0_0
10
25.157
20
35.986
0
VERTEX
8
L0D0_0
10
26.259
20
35.49
0
VERTEX
8
L0D0_0
10
27.33
20
34.928
0
VERTEX
8
L0D0_0
10
28.364
20
34.303
0
VERTEX
8
L0D0_0
10
29.359
20
33.616
0
VERTEX
8
L0D0_0
10
30.31
20
32.871
0
VERTEX
8
L0D0_0
10
31.215
20
32.069
0
VERTEX
8
L0D0_0
10
32.069
20
31.215
0
VERTEX
8
L0D0_0
10
32.871
20
30.31
0
VERTEX
8
L0D0_0
10
33.616
20
29.359
0
VERTEX
8
L0D0_0
10
34.303
20
28.364
0
VERTEX
8
L0D0_0
10
34.928
20
27.33
0
VERTEX
8
L0D0_0
10
35.49
20
26.259
0
VERTEX
8
L0D0_0
10
35.986
20
25.157
0
VERTEX
8
L0D0_0
10
36.415
20
24.027
0
VERTEX
8
L0D0_0
10
36.774
20
22.873
0
VERTEX
8
L0D0_0
10
37.063
20
21.7
0
VERTEX
8
L0D0_0
10
37.281
20
20.511
0
VERTEX
8
L0D0_0
10
37.427
20
19.311
0
VERTEX
8
L0D0_0
10
37.5
20
18.104
0
VERTEX
8
L0D0_0
10
37.5
20
-22.953
0
VERTEX
8
L0D0_0
10
37.445
20
-23.858
0
VERTEX
8
L0D0_0
10
37.336
20
-24.758
0
VERTEX
8
L0D0_0
10
37.173
20
-25.65
0
VERTEX
8
L0D0_0
10
36.956
20
-26.53
0
VERTEX
8
L0D0_0
10
36.686
20
-27.395
0
VERTEX
8
L0D0_0
10
36.365
20
-28.243
0
VERTEX
8
L0D0_0
10
35.992
20
-29.07
0
VERTEX
8
L0D0_0
10
35.571
20
-29.872
0
VERTEX
8
L0D0_0
10
35.102
20
-30.648
0
VERTEX
8
L0D0_0
10
34.587
20
-31.394
0
VERTEX
8
L0D0_0
10
34.028
20
-32.108
0
VERTEX
8
L0D0_0
10
33.427
20
-32.786
0
VERTEX
8
L0D0_0
10
32.786
20
-33.427
0
VERTEX
8
L0D0_0
10
32.108
20
-34.028
0
VERTEX
8
L0D0_0
10
31.394
20
-34.587
0
VERTEX
8
L0D0_0
10
30.648
20
-35.102
0
VERTEX
8
L0D0_0
10
29.872
20
-35.571
0
VERTEX
8
L0D0_0
10
29.07
20
-35.992
0
VERTEX
8
L0D0_0
10
28.243
20
-36.365
0
VERTEX
8
L0D0_0
10
27.395
20
-36.686
0
VERTEX
8
L0D0_0
10
26.53
20
-36.956
0
VERTEX
8
L0D0_0
10
25.65
20
-37.173
0
VERTEX
8
L0D0_0
10
24.758
20
-37.336
0
VERTEX
8
L0D0_0
10
23.858
20
-37.445
0
VERTEX
8
L0D0_0
10
22.953
20
-37.5
0
SEQEND
0
ENDSEC
0
EOF
