0
SECTION
2
HEADER
9
$ACADVER
1
AC1006
0
ENDSEC
0
SECTION
2
TABLES
0
TABLE
2
LAYER
70
1
0
LAYER
70
0
62
1
6
CONTINUOUS
2
L0D0_0
0
ENDTAB
0
ENDSEC
0
SECTION
2
BLOCKS
0
ENDSEC
0
SECTION
2
ENTITIES
0
POLYLINE
8
L0D0_0
70
1
40
0
41
0
66
1
0
VERTEX
8
L0D0_0
10
-22.953
20
-37.5
0
VERTEX
8
L0D0_0
10
-23.858
20
-37.445
0
VERTEX
8
L0D0_0
10
-24.758
20
-37.336
0
VERTEX
8
L0D0_0
10
-25.65
20
-37.173
0
VERTEX
8
L0D0_0
10
-26.53
20
-36.956
0
VERTEX
8
L0D0_0
10
-27.395
20
-36.686
0
VERTEX
8
L0D0_0
10
-28.243
20
-36.365
0
VERTEX
8
L0D0_0
10
-29.07
20
-35.992
0
VERTEX
8
L0D0_0
10
-29.872
20
-35.571
0
VERTEX
8
L0D0_0
10
-30.648
20
-35.102
0
VERTEX
8
L0D0_0
10
-31.394
20
-34.587
0
VERTEX
8
L0D0_0
10
-32.108
20
-34.028
0
VERTEX
8
L0D0_0
10
-32.786
20
-33.427
0
VERTEX
8
L0D0_0
10
-33.427
20
-32.786
0
VERTEX
8
L0D0_0
10
-34.028
20
-32.108
0
VERTEX
8
L0D0_0
10
-34.587
20
-31.394
0
VERTEX
8
L0D0_0
10
-35.102
20
-30.648
0
VERTEX
8
L0D0_0
10
-35.571
20
-29.872
0
VERTEX
8
L0D0_0
10
-35.992
20
-29.07
0
VERTEX
8
L0D0_0
10
-36.365
20
-28.243
0
VERTEX
8
L0D0_0
10
-36.686
20
-27.395
0
VERTEX
8
L0D0_0
10
-36.956
20
-26.53
0
VERTEX
8
L0D0_0
10
-37.173
20
-25.65
0
VERTEX
8
L0D0_0
10
-37.336
20
-24.758
0
VERTEX
8
L0D0_0
10
-37.445
20
-23.858
0
VERTEX
8
L0D0_0
10
-37.5
20
-22.953
0
VERTEX
8
L0D0_0
10
-37.5
20
13.255
0
VERTEX
8
L0D0_0
10
-37.409
20
14.764
0
VERTEX
8
L0D0_0
10
-37.227
20
16.263
0
VERTEX
8
L0D0_0
10
-36.954
20
17.749
0
VERTEX
8
L0D0_0
10
-36.864
20
18.115
0
VERTEX
8
L0D0_0
10
-17.805
20
18.115
0
VERTEX
8
L0D0_0
10
-18.358
20
17.571
0
VERTEX
8
L0D0_0
10
-19.396
20
16.418
0
VERTEX
8
L0D0_0
10
-20.362
20
15.203
0
VERTEX
8
L0D0_0
10
-21.252
20
13.932
0
VERTEX
8
L0D0_0
10
-22.063
20
12.609
0
VERTEX
8
L0D0_0
10
-22.792
20
11.238
0
VERTEX
8
L0D0_0
10
-23.435
20
9.826
0
VERTEX
8
L0D0_0
10
-23.991
20
8.377
0
VERTEX
8
L0D0_0
10
-24.458
20
6.897
0
VERTEX
8
L0D0_0
10
-24.833
20
5.391
0
VERTEX
8
L0D0_0
10
-25.116
20
3.865
0
VERTEX
8
L0D0_0
10
-25.305
20
2.325
0
VERTEX
8
L0D0_0
10
-25.4
20
0.776
0
VERTEX
8
L0D0_0
10
-25.4
20
-0.776
0
VERTEX
8
L0D0_0
10
-25.305
20
-2.325
0
VERTEX
8
L0D0_0
10
-25.116
20
-3.865
0
VERTEX
8
L0D0_0
10
-24.833
20
-5.391
0
VERTEX
8
L0D0_0
10
-24.458
20
-6.897
0
VERTEX
8
L0D0_0
10
-23.991
20
-8.377
0
VERTEX
8
L0D0_0
10
-23.435
20
-9.826
0
VERTEX
8
L0D0_0
10
-22.792
20
-11.238
0
VERTEX
8
L0D0_0
10
-22.063
20
-12.609
0
VERTEX
8
L0D0_0
10
-21.252
20
-13.932
0
VERTEX
8
L0D0_0
10
-20.362
20
-15.203
0
VERTEX
8
L0D0_0
10
-19.396
20
-16.418
0
VERTEX
8
L0D0_0
10
-18.358
20
-17.571
0
VERTEX
8
L0D0_0
10
-17.805
20
-18.115
0
VERTEX
8
L0D0_0
10
6.943
20
-18.115
0
VERTEX
8
L0D0_0
10
7.503
20
-17.9
0
VERTEX
8
L0D0_0
10
8.594
20
-17.403
0
VERTEX
8
L0D0_0
10
9.652
20
-16.839
0
VERTEX
8
L0D0_0
10
10.673
20
-16.211
0
VERTEX
8
L0D0_0
10
11.654
20
-15.521
0
VERTEX
8
L0D0_0
10
12.59
20
-14.772
0
VERTEX
8
L0D0_0
10
13.478
20
-13.966
0
VERTEX
8
L0D0_0
10
14.315
20
-13.108
0
VERTEX
8
L0D0_0
10
15.097
20
-12.199
0
VERTEX
8
L0D0_0
10
15.821
20
-11.243
0
VERTEX
8
L0D0_0
10
16.485
20
-10.245
0
VERTEX
8
L0D0_0
10
17.086
20
-9.208
0
VERTEX
8
L0D0_0
10
17.622
20
-8.135
0
VERTEX
8
L0D0_0
10
18.091
20
-7.031
0
VERTEX
8
L0D0_0
10
18.49
20
-5.901
0
VERTEX
8
L0D0_0
10
18.82
20
-4.748
0
VERTEX
8
L0D0_0
10
19.077
20
-3.577
0
VERTEX
8
L0D0_0
10
19.261
20
-2.392
0
VERTEX
8
L0D0_0
10
19.372
20
-1.198
0
VERTEX
8
L0D0_0
10
19.409
20
0
0
VERTEX
8
L0D0_0
10
19.372
20
1.198
0
VERTEX
8
L0D0_0
10
19.261
20
2.392
0
VERTEX
8
L0D0_0
10
19.077
20
3.577
0
VERTEX
8
L0D0_0
10
18.82
20
4.748
0
VERTEX
8
L0D0_0
10
18.49
20
5.901
0
VERTEX
8
L0D0_0
10
18.091
20
7.031
0
VERTEX
8
L0D0_0
10
17.622
20
8.135
0
VERTEX
8
L0D0_0
10
17.086
20
9.208
0
VERTEX
8
L0D0_0
10
16.485
20
10.245
0
VERTEX
8
L0D0_0
10
15.821
20
11.243
0
VERTEX
8
L0D0_0
10
15.097
20
12.199
0
VERTEX
8
L0D0_0
10
14.315
20
13.108
0
VERTEX
8
L0D0_0
10
13.478
20
13.966
0
VERTEX
8
L0D0_0
10
12.59
20
14.772
0
VERTEX
8
L0D0_0
10
11.654
20
15.521
0
VERTEX
8
L0D0_0
10
10.673
20
16.211
0
VERTEX
8
L0D0_0
10
9.652
20
16.839
0
VERTEX
8
L0D0_0
10
8.594
20
17.403
0
VERTEX
8
L0D0_0
10
7.503
20
17.9
0
VERTEX
8
L0D0_0
10
6.943
20
18.115
0
VERTEX
8
L0D0_0
10
-36.864
20
18.115
0
VERTEX
8
L0D0_0
10
-36.593
20
19.216
0
VERTEX
8
L0D0_0
10
-36.143
20
20.659
0
VERTEX
8
L0D0_0
10
-35.608
20
22.071
0
VERTEX
8
L0D0_0
10
-34.987
20
23.449
0
VERTEX
8
L0D0_0
10
-34.285
20
24.787
0
VERTEX
8
L0D0_0
10
-33.504
20
26.08
0
VERTEX
8
L0D0_0
10
-32.645
20
27.323
0
VERTEX
8
L0D0_0
10
-31.714
20
28.513
0
VERTEX
8
L0D0_0
10
-30.712
20
29.644
0
VERTEX
8
L0D0_0
10
-29.644
20
30.712
0
VERTEX
8
L0D0_0
10
-28.513
20
31.714
0
VERTEX
8
L0D0_0
10
-27.323
20
32.645
0
VERTEX
8
L0D0_0
10
-26.08
20
33.504
0
VERTEX
8
L0D0_0
10
-24.787
20
34.285
0
VERTEX
8
L0D0_0
10
-23.449
20
34.987
0
VERTEX
8
L0D0_0
10
-22.071
20
35.608
0
VERTEX
8
L0D0_0
10
-20.659
20
36.143
0
VERTEX
8
L0D0_0
10
-19.216
20
36.593
0
VERTEX
8
L0D0_0
10
-17.749
20
36.954
0
VERTEX
8
L0D0_0
10
-16.263
20
37.227
0
VERTEX
8
L0D0_0
10
-14.764
20
37.409
0
VERTEX
8
L0D0_0
10
-13.255
20
37.5
0
VERTEX
8
L0D0_0
10
18.104
20
37.5
0
VERTEX
8
L0D0_0
10
19.311
20
37.427
0
VERTEX
8
L0D0_0
10
20.511
20
37.281
0
VERTEX
8
L0D0_0
10
21.7
20
37.063
0
VERTEX
8
L0D0_0
10
22.873
20
36.774
0
VERTEX
8
L0D0_0
10
24.027
20
36.415
0
VERTEX
8
L0D0_0
10
25.157
20
35.986
0
VERTEX
8
L0D0_0
10
26.259
20
35.49
0
VERTEX
8
L0D0_0
10
27.33
20
34.928
0
VERTEX
8
L0D0_0
10
28.364
20
34.303
0
VERTEX
8
L0D0_0
10
29.359
20
33.616
0
VERTEX
8
L0D0_0
10
30.31
20
32.871
0
VERTEX
8
L0D0_0
10
31.215
20
32.069
0
VERTEX
8
L0D0_0
10
32.069
20
31.215
0
VERTEX
8
L0D0_0
10
32.871
20
30.31
0
VERTEX
8
L0D0_0
10
33.616
20
29.359
0
VERTEX
8
L0D0_0
10
34.303
20
28.364
0
VERTEX
8
L0D0_0
10
34.928
20
27.33
0
VERTEX
8
L0D0_0
10
35.49
20
26.259
0
VERTEX
8
L0D0_0
10
35.986
20
25.157
0
VERTEX
8
L0D0_0
10
36.415
20
24.027
0
VERTEX
8
L0D0_0
10
36.774
20
22.873
0
VERTEX
8
L0D0_0
10
37.063
20
21.7
0
VERTEX
8
L0D0_0
10
37.281
20
20.511
0
VERTEX
8
L0D0_0
10
37.427
20
19.311
0
VERTEX
8
L0D0_0
10
37.5
20
18.104
0
VERTEX
8
L0D0_0
10
37.5
20
-22.953
0
VERTEX
8
L0D0_0
10
37.445
20
-23.858
0
VERTEX
8
L0D0_0
10
37.336
20
-24.758
0
VERTEX
8
L0D0_0
10
37.173
20
-25.65
0
VERTEX
8
L0D0_0
10
36.956
20
-26.53
0
VERTEX
8
L0D0_0
10
36.686
20
-27.395
0
VERTEX
8
L0D0_0
10
36.365
20
-28.243
0
VERTEX
8
L0D0_0
10
35.992
20
-29.07
0
VERTEX
8
L0D0_0
10
35.571
20
-29.872
0
VERTEX
8
L0D0_0
10
35.102
20
-30.648
0
VERTEX
8
L0D0_0
10
34.587
20
-31.394
0
VERTEX
8
L0D0_0
10
34.028
20
-32.108
0
VERTEX
8
L0D0_0
10
33.427
20
-32.786
0
VERTEX
8
L0D0_0
10
32.786
20
-33.427
0
VERTEX
8
L0D0_0
10
32.108
20
-34.028
0
VERTEX
8
L0D0_0
10
31.394
20
-34.587
0
VERTEX
8
L0D0_0
10
30.648
20
-35.102
0
VERTEX
8
L0D0_0
10
29.872
20
-35.571
0
VERTEX
8
L0D0_0
10
29.07
20
-35.992
0
VERTEX
8
L0D0_0
10
28.243
20
-36.365
0
VERTEX
8
L0D0_0
10
27.395
20
-36.686
0
VERTEX
8
L0D0_0
10
26.53
20
-36.956
0
VERTEX
8
L0D0_0
10
25.65
20
-37.173
0
VERTEX
8
L0D0_0
10
24.758
20
-37.336
0
VERTEX
8
L0D0_0
10
23.858
20
-37.445
0
VERTEX
8
L0D0_0
10
22.953
20
-37.5
0
SEQEND
0
ENDSEC
0
EOF
